<svg xmlns="http://www.w3.org/2000/svg" width="189" height="181" fill="none"><path fill="#002776" d="M110.174 106.842c-15.1759.8-34.4743 6.932-49.6506 9.823-17.7398 3.405-36.1564 6.419-49.2203 8.942C4.16169 139.211.29906 154.297.023437 169.659c0 1.908-.00003 13.228.225564 15.115l183.796999-.759c.205-2.379.308-4.799.308-7.219 0-18.909-4.492-31.829-6.891-40.401-22.108-7.63-82.875-25.636-85.6641-26.108"/><path fill="#AB7487" d="M76.2333 89.719c0 4.84-.1845 9.8441-.1845 14.889 0 17.596 1.4356 35.562 23.1951 58.47 8.5721-13.003 21.1031-35.603 21.6161-58.101"/><path fill="#873953" d="M107.016.526367c61.238 0 81.665 51.947933 81.665 84.084733 0 17.0019-8.778 26.4559-13.249 26.4559-2.543 0-4.901-2.502-6.358-9.167-3.609 7.506-10.848 13.269-18.149 13.269-8.019 0-11.67-5.64-14.951-9.311.02-.103-52.4404-103.75248-28.958-105.331633Z"/><path fill="#AB7487" d="M72.8077 50.9976c-1.268 7.1825-2.0083 14.4482-2.2149 21.7389 0 25.0204 15.8941 45.8975 47.7232 45.8975 34.085 0 44.339-19.9953 44.339-55.1058V49.9516c-40.647-26.9481-71.2051-18.0885-89.8473 1.046Z"/><path fill="#002776" d="M145.777 99.6023c-.79.0391-1.581-.058-2.338-.2872-1.222-.3185-2.415-.737-3.568-1.251-2.243-.915-4.321-2.1895-6.153-3.7735-.194-.1343-.429-.1975-.664-.1788-.236.0187-.457.118-.628.2813-.107.0671-.197.1563-.266.2614-.07.1052-.115.2239-.135.3483-.019.1243-.012.2514.022.3726.034.1212.093.2338.174.3303 1.891 1.9027 4.072 3.4946 6.46 4.7173 1.233.653 2.515 1.208 3.835 1.661.997.377 2.037.625 3.097.738h.82c1.39-.157 2.666-.839 3.569-1.907.755-1.0181 1.216-2.2242 1.333-3.4866.201-2.089.097-4.1961-.308-6.2551 0-.6973-.225-1.3536-.369-2.0509l-.431-1.2715c-.718-2.2969-1.579-4.5324-2.338-6.7678-.55-1.5738-.988-3.1843-1.312-4.8195-.406-2.1505-.919-4.2792-1.538-6.3781-.093-.2499-.275-.4561-.512-.5783-.236-.1222-.51-.1515-.767-.0821-.257.0694-.479.2325-.622.4571-.143.2247-.196.4947-.15.757.43 2.0508.841 4.2453 1.271 6.3166.328 1.6612.78 3.4044 1.251 5.0656.657 2.2764 1.272 4.5529 1.744 6.8293l.205 1.21c.164.6153.328 1.2511.471 1.8663.453 1.7319.619 3.5261.493 5.3117-.052.7109-.316 1.3898-.759 1.9483-.211.1881-.458.3308-.726.419-.268.0882-.552.1201-.833.0937-.106.0443-.216.0787-.328.1026ZM117.537 64.8806c-.523.2408-1.029.5148-1.517.8204-.689.4576-1.311 1.0099-1.846 1.6407-.954 1.1616-1.622 2.5316-1.948 3.9991 0 .2666.369.5742.902.6973.533.123 1.025 0 1.108-.1231.353-1.0738.982-2.0357 1.825-2.7891.422-.3625.891-.666 1.394-.9024.356-.1456.728-.2488 1.108-.3076h.266c.805-.3407 1.67-.5163 2.543-.5163.874 0 1.739.1756 2.543.5163l.862.3281.595.1231c1.072.3032 2.089.7739 3.014 1.3945.659.4501 1.252.9883 1.764 1.5997.63.7567 1.16 1.5906 1.579 2.4815 0 .1846.595.2051 1.128 0 .533-.205.882-.4717.82-.7178-.332-1.2189-.935-2.3473-1.763-3.3018-.642-.724-1.327-1.4089-2.051-2.0509-1.038-.8637-2.165-1.6131-3.363-2.2354-.201-.136-.414-.2528-.636-.3486l-1.108-.3077c-2.261-.4638-4.587-.5263-6.87-.1845l-.349.1845ZM156.503 72.6336c.216.1413.416.3063.595.4922.248.2902.474.5987.677.9228.399.6688.67 1.406.8 2.174 0 .123.512.205 1.066.1845.554-.0205 1.005-.1846.984-.3691.015-1.0311-.145-2.0572-.471-3.0353-.188-.5221-.414-1.0294-.677-1.5176-.226-.3487-.39-.7178-.636-1.0459l-.164-.2256c-1.361-1.0125-2.898-1.7636-4.532-2.215-.288 0-.575-.123-.862-.1435h-.553c-.993.1298-1.96.4063-2.872.8203-.632.297-1.242.6397-1.825 1.0255-.725.4789-1.346 1.0998-1.825 1.8252-.103.1436.185.5538.615.8819.431.3281.861.5332.964.4511.49-.4527 1.011-.8707 1.559-1.2509.414-.2998.88-.5222 1.374-.6563.676-.1459 1.375-.1459 2.051 0l.328.1025c.184-.0205.369-.0205.553 0 .541-.0077 1.074.1241 1.548.3828s.874.6355 1.16 1.0938l.143.1026Z"/><path fill="#002776" d="M118.46 75.9571c-.098-.5552-.146-1.118-.144-1.6817 0-3.6095 1.887-6.6243 3.528-6.6243s2.338 3.3224 2.338 5.1066c0 3.63-1.866 6.4397-3.507 6.4397-.964 0-1.825-.9639-2.215-3.2403Z"/><path fill="#002776" d="M122.028 75.7704c-.096.3988-.241.7844-.43 1.1485-.131.2136-.275.4191-.431.6152-.074.0908-.165.1673-.267.2256-.116.0597-.251.076-.378.0459-.128-.03-.241-.1044-.319-.2099-.314-.4212-.538-.9031-.656-1.4151 0-.2051-.554-.3077-1.108-.2256-.553.082-.963.3896-.922.6562.125.8872.432 1.7389.902 2.5021.294.4874.732.8716 1.254 1.0993.521.2278 1.101.288 1.658.1722.605-.1139 1.17-.3824 1.641-.7793.376-.3068.713-.658 1.005-1.0459.386-.4959.729-1.0243 1.025-1.5792l.205-.3897c.575-2.4413.575-4.9827 0-7.424-.133-.5289-.347-1.034-.636-1.4972-.237-.3472-.544-.6407-.902-.8613-.442-.3289-.971-.5216-1.521-.5544-.55-.0328-1.098.0957-1.576.3698-.233.1454-.459.3029-.676.4717-.2.1687-.385.3539-.554.5537-.265.3117-.498.6482-.698 1.005-.528.9454-.921 1.9602-1.169 3.0147-.297 1.3096-.297 2.6691 0 3.9786 0 .2666.534.4102 1.067.3077.533-.1026.984-.3487.984-.5743-.056-1.0735.033-2.1499.267-3.1993.176-.7996.503-1.5583.964-2.2354.155-.2053.326-.3974.513-.5743.164-.1435.164 0 .307-.164.087-.0279.182-.0223.265.0156.084.0379.15.1054.186.1895.01.0611.01.1234 0 .1845.117.1623.207.3424.267.5333.364.8504.537 1.7699.509 2.6944-.028.9245-.258 1.8317-.673 2.6583l-.103.2871ZM152.402 71.5876c-1.059.4723-1.948 1.2586-2.546 2.2527-.598.9941-.876 2.1479-.797 3.3052-.034 1.4509.445 2.8674 1.354 3.9991 2.153-.3281 2.789-2.3995 2.789-4.6349-.035-1.67-.304-3.3268-.8-4.9221Z"/><path fill="#002776" d="M154.616 78.4784v-1.4561c-.021-.6875-.089-1.3728-.205-2.0508-.22-1.1723-.535-2.3246-.943-3.4455 0-.2051-.574-.2051-1.108 0-.533.2051-.922.4512-.881.6358.217 1.0253.334 2.0693.348 3.1173-.002.5211-.036 1.0416-.102 1.5586-.045.3384-.135.6695-.267.9844v.1846c.226.4307-.225.9229-.492.6973-.006-.082-.006-.1642 0-.2461a.782375.782375 0 0 1 0-.2051h-.123v-.2871c-.061-.2077-.102-.4205-.123-.6358-.051-.4291-.051-.8629 0-1.292.076-.6158.279-1.2092.595-1.7432.373-.6336.894-1.1681 1.517-1.5587.103 0 0-.5537 0-1.0664s-.512-.8819-.759-.8204c-1.114.4268-2.048 1.2232-2.645 2.256-.443.7695-.775 1.5982-.985 2.461-.148.5989-.244 1.2096-.287 1.8252v2.0919c.06.3265.143.6485.246.9639.2.4425.448.862.739 1.251.307.3897.615.7383.943 1.128 1.114-.0696 2.178-.4841 3.045-1.1861.868-.7019 1.495-1.6564 1.795-2.731l-.308-.4307ZM119.691 99.273c-.171-.1438-.323-.3092-.451-.4921-.184-.2543-.348-.5217-.493-.7999-.245-.5555-.371-1.1564-.369-1.7637 0 0-.472-.2666-1.025-.3692-.554-.1025-1.005 0-1.026.1026-.164.9018-.164 1.8258 0 2.7276.099.4731.229.939.39 1.3947.123.328.226.636.369.943v.226c1.046.964 1.928 1.948 2.974 2.769l.554.41c.139.06.283.108.43.143.761.26 1.534.479 2.318.657.554 0 1.128.225 1.702.287.742.098 1.496.042 2.215-.164.164 0 .184-.513 0-1.046-.185-.534-.287-.985-.39-1.005h-1.62c-.435-.059-.862-.169-1.271-.328-.575-.245-1.108-.577-1.58-.985l-.225-.225-.472-.226c-.467-.178-.891-.453-1.244-.806-.354-.354-.629-.7778-.807-1.2449l.021-.2051Z"/><path fill="#873953" d="M160.789 63.7741c.301.1465.589.318.862.5127l1.189.8819c.738.5742 1.456 1.169 2.051 1.8048.123.123.574-.1026.984-.4922.41-.3897.657-.7794.533-.9229-.615-.7589-1.23-1.5382-1.886-2.297l-1.067-1.169-.759-.8203-.164-.2051c-1.435-.7178-2.727-1.6817-4.101-2.461l-.759-.3897-.533-.1025c-.979-.2172-1.973-.3544-2.974-.4102h-2.051c-.894.0236-1.779.1826-2.625.4717-.185 0-.205.5332 0 1.0664.205.5333.369.9435.513.9435.779 0 1.538-.1436 2.276-.1641.586-.0167 1.171.0384 1.743.1641.791.1626 1.552.4463 2.256.8408l.369.2461c.225.0565.445.132.657.2256 1.318.4065 2.492 1.1822 3.384 2.2354l.102.041ZM124.099 56.2674c.403-.021.807-.021 1.21 0l1.744.2667c1.09.2006 2.166.4746 3.219.8203.206 0 .534-.3281.739-.8408.205-.5127.225-1.005 0-1.087-1.087-.5127-2.195-.9844-3.343-1.3946-.574-.2256-1.169-.4101-1.784-.5947l-1.272-.4102-.287-.1025c-1.887 0-3.753-.2461-5.64-.2666h-.984l-.636.164c-1.138.2677-2.255.6172-3.343 1.046-.779.3281-1.559.6767-2.317 1.0869-.955.5219-1.803 1.2174-2.502 2.0508-.144.1641 0 .6153.492.9844.492.3692.841.5538.984.4512.685-.5609 1.412-1.0682 2.174-1.5176.613-.3435 1.268-.6055 1.948-.7793.964-.2507 1.958-.368 2.954-.3486h.512l.841-.1026c1.672-.2451 3.378-.0976 4.984.4307l.307.1435Z"/><path fill="#873953" d="M107.016.526367c-53.1989 0-74.7328 56.890533-74.7328 77.583533 0 10.2543 0 28.7121 12.9819 28.7121 5.968 0 10.2542-7.7934 12.6742-13.6178.2051 11.1978 7.1574 17.8428 20.8366 17.8428 17.1656 0 18.9294-44.8525 21.8621-67.6784 7.752 6.3371 21.021 16.2427 37.264 16.2427 5.681 0 10.357-1.8663 10.357-8.8597 7.342 5.5373 15.34 10.6234 24.487 10.6234 0 0-6.337-55.02423-65.73-60.848633ZM110.01 120.645h4.102c1.545-.082 3.063-.205 4.553-.37.266 0 .451-.512.41-1.066-.041-.554-.287-1.005-.533-1.005-1.477 0-2.933 0-4.389-.164l-2.276-.246c-.513 0-1.046-.185-1.559-.287h-.369c-2.221.004-4.427-.371-6.522-1.108l-1.066-.369-.739-.123c-1.316-.277-2.6065-.668-3.8553-1.169-.8987-.35-1.7693-.768-2.6045-1.251-1.0459-.595-2.0509-1.251-3.1173-1.907-.2051-.144-.6563 0-1.0049.513-.3487.512-.4717.902-.2667 1.086.975.91 2.0643 1.689 3.2404 2.318.9024.533 1.8252.984 2.7481 1.477 1.3125.635 2.6045 1.271 3.9582 1.825l.697.307 1.21.288c2.297.492 4.656.82 6.994 1.415l.389-.164Z"/></svg>