<svg xmlns="http://www.w3.org/2000/svg" width="198" height="216" fill="none"><path fill="#002776" d="M100.442 113.939c-15.6383 4.464-31.7418 7.096-47.9871 7.843-3.5397-6.174-5.3694-13.181-5.3007-20.297 0-9.266 3.383-12.5628 3.383-20.7509 0-7.4124-2.6504-14.6309-2.6504-22.4311 0-28.7447 18.1863-43.7634 43.8496-55.2268C114.534-2.91406 152.566.921429 152.824 29.6445c.259 28.7231 4.116 82.7435-52.382 84.2945Z"/><path fill="#F8E9DD" d="M126.838 102.153c.302-4.9125.496-9.8254.496-14.7814 0-25.534-4.633-46.1552-6.874-57.6616-7.24 8.2743-18.186 15.4712-38.441 15.4712-5.8767-.1808-11.7285-.8438-17.4967-1.9824-.6282 2.9968-1.0315 6.0363-1.2067 9.0932-.6464 10.5583 1.81 13.812 1.4437 19.6946v.2154c-.3663 4.8267-2.3056 9.3086-2.5857 13.8768-.8404 14.1572 21.3322 24.4562 35.6399 25.3182 11.3345.625 21.3755-2.391 29.0245-9.244Z"/><path fill="#F8E9DD" d="M63.4653 145.766c9.1147-4.115 28.012-2.391 28.012-39.626 0-4.827-.2155-9.6102-.2586-14.0059l41.2643-2.715c-.535 4.006-.759 8.0476-.668 12.0879v.97c0 7.994-.431 9.266-.431 14.782 0 16.958 5.365 20.923 26.87 22.926-30.124 54.861-93.1941 51.887-94.7887 5.581Z"/><path fill="#002776" d="M97.7051 2.79564c4.7839 0 7.1539-1.57298 16.7429-1.57298 27.861 0 54.084 16.97964 54.084 45.25014 0 7.6279-1.379 15.2558-1.379 23.0345 0 13.5966 6.314 16.6564 6.314 32.3217-.026 3.884-.459 7.755-1.293 11.549-18.343 5.41-37.137 9.153-56.153 11.184 3.065-16.562 4.645-33.3639 4.719-50.2064 0-30.1668-4.612-30.9856-5.926-49.5598"/><path fill="#EE8D9C" d="M82.7073 70.4143c.3232-.6896.6679-1.4006 1.0342-2.1548l1.6377-3.0167c1.0881-1.9541 1.9415-4.0298 2.5426-6.1842 0-.4094-.3016-.8403-.8834-.9696-.5818-.1293-1.099 0-1.2283.3663-.684 1.9525-1.6338 3.8015-2.8227 5.4946l-1.8531 2.7797-1.3575 2.0039-.3232.4741c-.7574 1.6285-1.3842 3.3145-1.8747 5.0422-.5205 1.9195-.4681 3.9493.1509 5.8394.2511.6746.5917 1.3123 1.0127 1.8962.2978.3485.6298.6661.9912.9481 1.8649 1.3987 4.1332 2.1548 6.4643 2.1548 1.6049.0457 3.2064-.1727 4.7405-.6465 2.022-.5706 3.7914-1.8085 5.0206-3.5122.0932-.2259.0933-.4794.0005-.7054-.0928-.226-.2711-.4062-.4961-.5013-.4956-.3017-1.0343-.3448-1.2282-.1078-1.0945 1.1844-2.4857 2.0548-4.0295 2.5211-1.2466.387-2.5583.5189-3.857.3879-1.7252-.1253-3.3403-.8944-4.525-2.1548-.177-.1959-.329-.4131-.4525-.6464-.2792-.3129-.5048-.6696-.6679-1.0559-1.099-2.1547-.1293-5.4515 1.7453-8.0157l.2586-.237Z"/><path fill="#002776" d="M110.226 65.8677c.385-.2779.752-.5802 1.099-.905.503-.4284.972-.8968 1.4-1.4006.76-.9325 1.417-1.9438 1.961-3.0167 0-.1939-.237-.5818-.754-.8834-.517-.3017-1.013-.3879-1.099-.2371-.618.8124-1.342 1.5372-2.155 2.1548-.397.3208-.815.6159-1.25.8835-.292.171-.603.3084-.926.4094h-.237c-.497.4406-1.106.736-1.76.8538-.653.1179-1.327.0536-1.946-.1858l-.539-.2371h-.388c-.749-.2965-1.383-.8251-1.81-1.5083-.356-.5331-.619-1.1235-.776-1.7454-.194-.7972-.344-1.6591-.495-2.5426 0-.1724-.517-.3017-1.0991-.2801-.5818.0215-1.0559.1724-1.0559.3878-.0647 1.0309.0445 2.0653.3232 3.0598.215.8244.5109 1.6256.8835 2.3918.5613 1.1663 1.3873 2.1848 2.4133 2.9736l.582.4309c.36.1276.727.2354 1.099.3233 2.089.3189 4.227.0657 6.184-.7327l.345-.1939ZM78.5504 64.7231c.2712-.3673.5228-.7485.7541-1.1421.3202-.5359.5941-1.0982.8188-1.6807.4043-1.085.6369-2.2263.6896-3.383 0-.1939-.4526-.4094-1.0344-.474-.5817-.0647-1.0773 0-1.1204.1939-.1904.8821-.5253 1.7267-.9912 2.4995-.2487.3701-.5223.7229-.8188 1.0559-.2173.2169-.4555.4118-.7111.5818h-.1724c-.3195.5122-.7743.9262-1.3142 1.1961-.54.27-1.1441.3855-1.7456.3338-.178.0328-.3606.0328-.5387 0h-.3662c-.6759.0017-1.3256-.2613-1.81-.7327-.4023-.3767-.712-.8413-.9051-1.3575-.2431-.7058-.4445-1.4253-.6033-2.1547 0-.1509-.5387-.2586-1.1205-.2155-.5818.0431-1.0343.2155-1.0343.4094-.03.9949.146 1.9853.5171 2.9089.3086.7713.7219 1.4963 1.2283 2.1548.7837.9962 1.8389 1.7445 3.0382 2.1548l.6465.2154c.3584.0325.719.0325 1.0774 0 1.9417-.3243 3.7755-1.1155 5.3438-2.3056.0648-.081.1225-.1675.1724-.2585ZM102.597 92.9086l.496-.9481c.243-.4506.452-.9188.625-1.4006.309-.8959.483-1.8327.517-2.7797 0-.1724-.474-.3447-1.056-.4094-.582-.0646-1.077 0-1.099.1293-.166.6871-.458 1.3374-.862 1.9177-.184.303-.4.5848-.646.8404-.171.1823-.358.3482-.56.4956h-.1511c-.2377.4703-.5747.8834-.9876 1.2108-.413.3274-.8921.5612-1.4042.6854l-.5172.1724-.3016.1939c-.5596.339-1.1831.5591-1.8316.6464-.4628.0865-.9377.0865-1.4006 0-.5817 0-1.1636-.237-1.7885-.3663 0 0-.4093.3879-.6464.905-.237.5172-.3231 1.0128-.1723 1.099.6972.3978 1.466.6541 2.2625.7541.629.0832 1.2619.1336 1.8962.1509.8948.0213 1.7895-.0437 2.6719-.1939h.4956l.6895-.3448c1.2654-.7865 2.4814-1.65 3.6414-2.5857l.129-.1724Z"/><path fill="#DC8000" d="M.956055 246.522C17.634 207.521 18.776 144.128 71.5248 139.387c8.2528 10.257 16.6564 21.828 27.4302 29.477 32.796-7.929 48.331-26.051 53.201-34.303h5.646c19.544 0 40.035 3.426 40.035 23.012 0 34.994-1.271 82.787-12.045 91.169"/><path fill="#002776" d="M102.144 43.6291h-1.056l-1.5298.1724-2.8659.4094c-.1724 0-.2586.5387-.2155 1.1205.0431.5817.2371 1.0558.3879 1.0558l2.7581.1508c.4522 0 .9262 0 1.4002.1509.335.0438.666.1085.992.1939h.215c1.371-.2082 2.772-.0976 4.094.3232l.668.1939h.453c.821.0433 1.637.166 2.434.3664.561.1462 1.103.3558 1.617.6248.646.3233 1.249.6896 1.853 1.0559 0 0 .538-.2155.926-.6465.388-.4309.604-.8619.474-1.0127-.619-.6475-1.349-1.1801-2.154-1.573l-1.854-.8619-2.607-1.0558-.474-.194h-.776c-1.508-.0544-3.009-.2492-4.482-.5817l-.258.1077ZM75.511 48.284c.2148-.0944.4386-.1666.668-.2155.326-.0801.6572-.1377.9912-.1724.5994-.097 1.2105-.097 1.81 0 .1077 0 .3447-.4309.5602-.9696.2155-.5387.237-1.0343 0-1.099-.7696-.3119-1.572-.536-2.3918-.6679l-1.2498-.1293h-1.0989c-1.1284.4289-2.2982.7394-3.4907.9265l-.6034.1724-.3447.237-1.8316 1.2283-1.3144.9265c-.5696.4207-1.0525.9475-1.4221 1.5514 0 .1509.2585.5172.711.862.2866.2412.6263.411.9913.4955l1.2066-.9696c.3293-.273.7004-.4913 1.099-.6464.567-.2401 1.1599-.4136 1.7668-.5172h.3232l.4526-.2154c.8779-.5122 1.9016-.7169 2.9089-.5818l.2586-.2155Z"/></svg>