<svg xmlns="http://www.w3.org/2000/svg" width="282" height="79" fill="none"><path fill="#fff" fill-rule="evenodd" d="M27.8578 55.6151c-5.129 0-9.193-1.183-9.943-1.42-.395-.158-.592-.473-.592-.828v-.197l.513-2.605c.079-.394.355-.512.671-.512.079 0 .158 0 .276.039.829.158 4.853 1.302 8.641 1.302 3.235 0 6.115-.947 6.115-4.3 0-3.394-2.958-3.748-6.786-4.301-4.261-.632-9.745-1.776-9.745-8.484 0-6.904 5.129-8.719 11.205-8.719 4.617 0 8.444 1.105 9.311 1.341.474.119.711.435.711.829v.197l-.552 2.565c-.04.276-.316.552-.632.552-.039 0-.079-.039-.118-.039-1.894-.395-4.814-1.184-8.286-1.184-2.92 0-5.997.553-5.997 3.867 0 3.275 3.314 3.748 6.826 4.261 4.616.71 9.863 1.381 9.863 8.72 0 6.904-5.602 8.916-11.481 8.916ZM76.3721 45.1211l-4.893.789c-1.618.236-3.117.473-3.117 3.037 0 3.078 2.486 3.315 4.38 3.315 1.538 0 2.801-.276 3.63-.553v-6.588Zm1.617 10.021c-1.381.316-3.275.552-5.484.552-4.261 0-9.509-.433-9.509-6.707 0-5.09 3.196-5.641 6.353-6.155l7.023-1.145v-1.262c0-1.105-.119-1.894-1.105-2.328-.632-.276-1.579-.394-2.999-.394-2.683 0-5.603.789-6.786 1.104-.119 0-.197.04-.276.04-.198 0-.395-.079-.435-.355l-.552-2.446v-.158c0-.355.277-.513.474-.592.947-.355 4.576-1.342 8.601-1.342 2.801 0 4.695.395 5.958 1.105 2.012 1.105 2.407 2.959 2.407 5.09v10.89c0 2.959-.987 3.472-3.67 4.103ZM95.7348 38.0179c-2.406 0-4.458.237-5.563.513v16.059c0 .355-.237.592-.591.592h-4.025c-.237 0-.671-.237-.671-.592v-17.045c0-1.539.907-2.012 2.801-2.565 1.736-.552 4.538-.946 6.787-.986h.67c.553 0 .553 0 .829.118.158.079.355.237.355.631v2.565c0 .395-.039.71-.592.71ZM110.823 40.511c-.513-2.17-1.696-2.881-4.024-2.881-2.644 0-3.749.789-4.183 2.762-.276 1.105-.276 2.25-.315 3.551l8.838-.04c0-1.261-.04-2.327-.316-3.392Zm5.563 5.879c0 .433-.237.907-.828.907H102.34c0 1.815.513 2.802 1.578 3.63 1.026.828 2.525 1.183 4.656 1.183 2.447 0 4.3-.591 5.524-.947.079-.039.118-.039.197-.039.237 0 .434.158.553.553l.512 2.011c0 .04.04.12.04.198 0 .316-.197.473-.474.592-1.341.552-4.024 1.262-7.141 1.262-7.733 0-10.7713-3.038-10.7713-10.77 0-7.418 2.051-10.97 9.7453-10.97 3.985 0 6.431 1.026 7.852 2.92 1.341 1.776 1.775 4.301 1.775 7.575v1.895ZM159.653 45.1211l-4.892.789c-1.618.236-3.117.473-3.117 3.037 0 3.078 2.485 3.315 4.379 3.315 1.538 0 2.801-.276 3.63-.553v-6.588Zm1.617 10.021c-1.38.316-3.275.552-5.484.552-4.262 0-9.509-.433-9.509-6.707 0-5.09 3.197-5.641 6.353-6.155l7.023-1.145v-1.262c0-1.105-.119-1.894-1.105-2.328-.631-.276-1.578-.394-2.998-.394-2.684 0-5.604.789-6.787 1.104-.118 0-.198.04-.276.04-.197 0-.394-.079-.434-.355l-.552-2.446v-.158c0-.355.275-.513.473-.592.947-.355 4.577-1.342 8.601-1.342 2.801 0 4.695.395 5.958 1.105 2.013 1.105 2.407 2.959 2.407 5.09v10.89c0 2.959-.987 3.472-3.67 4.103ZM186.04 55.1821h-4.064c-.356 0-.631-.237-.631-.592v-13.928c0-2.289-.868-3.078-2.959-3.078-2.368 0-4.932.671-4.932.671v16.335c0 .355-.237.592-.592.592h-4.025c-.395 0-.67-.237-.67-.592v-17.006c0-1.499.749-2.012 2.959-2.604 2.012-.552 5.326-1.026 7.851-1.026 4.932 0 7.655 1.263 7.655 5.997v14.639c0 .355-.237.592-.592.592ZM208.919 54.826c0 .158-.157.356-.395.356h-5.287c-.197 0-.394 0-.592-.237l-6.115-8.326h-1.341v7.971c0 .355-.198.592-.592.592h-4.064c-.354 0-.632-.237-.632-.592V27.01c0-.473.198-.71.672-.828l3.866-.671h.158c.355 0 .592.237.592.671v16.886h1.341l6.235-8.325c.157-.236.315-.275.512-.275l4.814.118c.276 0 .394.197.394.355 0 .079-.039.118-.079.197l-7.457 9.391 7.892 10.1c.039.04.078.119.078.197ZM51.2313 52.0641c-2.13 0-3.748-.472-3.748-.472v-13.297s2.328-.631 4.142-.631c2.999 0 4.301.67 4.301 7.062 0 5.997-1.105 7.338-4.695 7.338Zm1.499-18.11c-2.643 0-5.681.435-8.048 1.263-1.776.552-2.486 1.144-2.486 3.196v24.423c0 .394.309.717.878.614.568-.102 3.738-.688 3.738-.688.474-.079.671-.316.671-.789v-6.879c1.4.341 3.166.6 5.129.6 7.339 0 8.719-4.616 8.719-10.85 0-6.273-.986-10.89-8.601-10.89ZM133.016 42.3579l-7.417-.236v8.995h7.417c3.985 0 5.287-1.735 5.287-4.143 0-3.234-1.065-4.498-5.287-4.616Zm.197-12.27h-7.614v8.443l7.339-.315c2.998-.119 4.537-1.184 4.537-4.182 0-2.763-1.342-3.946-4.262-3.946Zm.514 25.094h-13.139c-.356 0-.671-.277-.671-.631v-27.896c0-.355.315-.631.671-.631h13.178c6.672 0 9.39 2.616 9.39 7.354 0 4.182-2.323 5.679-5.918 6.708 3.991.659 6.905 2.825 6.905 7.48 0 5.287-3.709 7.616-10.416 7.616Z" clip-rule="evenodd"/><path fill="#E60000" fill-rule="evenodd" d="M242.534 12.1311c-2.932 0-5.757.458-8.411 1.3 11.169-2.423 22.24 2.178 26.228 11.602 4.609 10.892-1.989 24.096-14.738 29.491-11.435 4.839-23.931 1.747-29.711-6.802 3.381 11.516 14.021 19.928 26.632 19.928 15.331 0 27.76-12.428 27.76-27.76 0-15.331-12.429-27.759-27.76-27.759Z" clip-rule="evenodd"/><path fill="#AF0000" fill-rule="evenodd" d="M245.613 54.5239c12.749-5.395 19.347-18.599 14.738-29.491-3.988-9.424-15.059-14.025-26.228-11.602-11.219 3.564-19.348 14.061-19.348 26.459 0 2.721.398 5.347 1.127 7.832 5.78 8.549 18.276 11.641 29.711 6.802Z" clip-rule="evenodd"/><path fill="#fff" fill-rule="evenodd" d="M249.65 52.436V23.932c0-.566-.462-1.027-1.029-1.027h-6.454c-.461 0-.72.103-1.132.257l-8.328 4.287c-.513.207-.719.514-.719 1.029v4.671c0 .549.446.992.993.992h5.33V56.55c2.433-.338 4.891-1.006 7.302-2.026 1.425-.603 2.773-1.304 4.037-2.088Z" clip-rule="evenodd"/></svg>