<svg width="176" height="118" viewBox="0 0 176 118" fill="none" xmlns="http://www.w3.org/2000/svg">
<path d="M14.8091 30.0801C23.422 14.0268 42.7862 6.95331 57.6943 11.3631C74.6767 16.3906 83.9839 34.9479 80.0008 52.3697C75.2281 73.1956 52.9645 85.348 31.0823 78.2937C14.7896 73.0419 8.12377 58.3054 10.4988 43.082C11.186 38.6158 12.6147 34.1915 14.8091 30.0801Z" fill="#002776"/>
<path d="M39.4587 78.2425C37.4496 77.9424 35.4178 77.7329 33.4551 77.1432C32.4624 76.8937 31.464 76.6669 30.5302 76.2876C29.5727 75.9505 28.6123 75.6248 27.7262 75.1611C26.3781 74.5933 25.1586 73.8289 23.9181 73.0954C22.7585 72.2497 21.5752 71.4462 20.5453 70.4524C18.4531 68.5409 16.663 66.3198 15.2791 63.8995C14.0023 61.5784 13.0621 59.1251 12.4044 56.5982C11.8047 54.0497 11.519 51.4597 11.4614 48.8546C11.5006 43.6593 12.4932 38.4506 14.5216 33.6348C15.2265 31.9323 15.4193 30.3782 14.7862 30.0625C14.178 29.753 12.9055 30.879 12.11 32.6792C9.871 37.7554 8.70512 43.2338 8.57856 48.8289C8.56298 51.6204 8.84421 54.4382 9.44889 57.2289C10.1089 60.0094 11.1229 62.7464 12.5136 65.3491C13.9589 68.0499 15.9459 70.5374 18.2475 72.7184C19.3758 73.8455 20.6853 74.777 21.9766 75.7282C23.3461 76.5784 24.7098 77.4514 26.1802 78.1101C27.1819 78.639 28.2425 79.0381 29.3032 79.4372C30.3525 79.8817 31.4416 80.1675 32.5251 80.476C34.6721 81.1722 36.9131 81.4945 39.137 81.8848L42.3054 82.139C47.028 82.1934 51.7411 81.4983 56.1489 80.0759C60.573 78.6937 64.6305 76.4603 68.1778 73.7372C71.7156 70.9997 74.7422 67.724 77.0975 64.0747C79.3964 60.3872 80.9878 56.3652 81.9597 52.2357C82.2194 50.7828 82.5535 49.3486 82.6461 47.8778C82.711 47.1471 82.816 46.4144 82.8313 45.6712L82.8495 43.4467C82.8664 42.487 82.7106 41.5321 82.6102 40.5671L82.4442 39.1277L82.1552 37.7055C81.1544 32.5018 79.1459 27.3702 75.8796 22.8864C72.6658 18.4036 68.3371 14.4721 63.0704 12.0157C59.339 10.2223 55.221 9.12707 51.1078 8.85234C46.9879 8.55183 42.8861 8.96674 38.9902 9.9274C29.2742 12.3652 20.542 18.448 15.3973 26.5291C14.4203 28.2114 14.157 29.7839 14.771 30.0707C15.3849 30.3576 16.6356 29.3706 17.5908 27.8274C22.6714 20.3689 30.8546 14.7384 39.8923 12.4796C47.0698 10.693 55.0946 11.0472 61.7615 14.4941C66.4468 16.7441 70.2941 20.386 73.1181 24.5298C75.9823 28.6716 77.6745 33.4345 78.4505 38.2203L78.6468 39.4865L78.7352 40.7619C78.7745 41.6031 78.9034 42.4549 78.8348 43.3051L78.8498 45.3452C78.8516 46.0204 78.758 46.7077 78.7073 47.3818C78.6556 48.7424 78.3595 50.0777 78.1408 51.4204C77.3068 55.2111 75.9153 58.9098 73.8632 62.2979C71.7518 65.659 69.0131 68.6818 65.7728 71.1808C62.5353 73.6685 58.8067 75.6954 54.7393 76.866C50.7005 78.0799 46.3937 78.5759 42.1518 78.3411L39.4587 78.2425Z" fill="#7EB5D2"/>
<path d="M98.1232 57.1415C106.749 41.0913 126.1 34.0148 141.008 38.4245C157.991 43.452 167.298 62.0093 163.315 79.4311C158.542 100.257 136.279 112.409 114.397 105.355C98.1038 100.103 91.438 85.3668 93.813 70.1435C94.5002 65.6773 95.9165 61.2498 98.1232 57.1415Z" fill="#002776"/>
<path d="M122.772 105.304C120.763 105.004 118.731 104.794 116.768 104.204C115.776 103.955 114.777 103.728 113.843 103.349C112.886 103.012 111.925 102.686 111.039 102.222C109.691 101.655 108.472 100.89 107.231 100.157C106.072 99.311 104.888 98.5075 103.858 97.5137C101.766 95.6022 99.9761 93.381 98.5923 90.9608C97.3154 88.6397 96.3753 86.1864 95.7051 83.6563C95.1055 81.1078 94.8197 78.5178 94.7621 75.9128C94.8013 70.7175 95.7939 65.5088 97.8223 60.6929C98.5273 58.9905 98.72 57.4364 98.0869 57.1206C97.4787 56.8111 96.2062 57.9371 95.4107 59.7373C93.1717 64.8135 92.0058 70.292 91.8792 75.887C91.8637 78.6785 92.1449 81.4964 92.7496 84.2871C93.4096 87.0676 94.4236 89.8046 95.8143 92.4073C97.2596 95.108 99.2466 97.5955 101.548 99.7765C102.677 100.904 103.986 101.835 105.277 102.786C106.65 103.625 108.011 104.509 109.481 105.168C110.483 105.697 111.543 106.096 112.604 106.495C113.653 106.94 114.742 107.226 115.826 107.534C117.973 108.23 120.214 108.553 122.438 108.943L125.606 109.197C130.329 109.252 135.042 108.556 139.45 107.134C143.874 105.752 147.931 103.518 151.479 100.795C155.016 98.0578 158.043 94.7821 160.398 91.1329C162.697 87.4453 164.289 83.4233 165.26 79.2938C165.52 77.8409 165.854 76.4067 165.947 74.9359C166.012 74.2052 166.117 73.4725 166.132 72.7293L166.147 70.5162C166.164 69.5565 166.009 68.6016 165.908 67.6365L165.742 66.1971L165.453 64.775C164.452 59.5713 162.444 54.4397 159.177 49.9558C155.976 45.4762 151.635 41.5415 146.368 39.0852C142.637 37.2918 138.519 36.1965 134.406 35.9218C130.286 35.6213 126.184 36.0362 122.288 36.9969C112.572 39.4347 103.84 45.5175 98.6951 53.5985C97.7182 55.2808 97.4549 56.8533 98.0688 57.1402C98.6828 57.427 99.9335 56.4401 100.889 54.8969C105.969 47.4384 114.153 41.8079 123.19 39.5491C130.368 37.7625 138.392 38.1167 145.059 41.5636C149.745 43.8136 153.592 47.4555 156.416 51.5992C159.28 55.741 160.972 60.504 161.748 65.2897L161.945 66.556L162.033 67.8313C162.069 68.6839 162.201 69.5243 162.133 70.3746L162.148 72.4147C162.149 73.0899 162.059 73.7659 162.005 74.4513C161.953 75.8119 161.657 77.1472 161.441 78.4785C160.607 82.2692 159.216 85.9679 157.164 89.356C155.053 92.7172 152.314 95.7399 149.074 98.2389C145.836 100.727 142.107 102.754 138.04 103.924C134.001 105.138 129.694 105.634 125.452 105.399L122.772 105.304Z" fill="#7EB5D2"/>
<path d="M91.1639 58.0915C91.5046 58.1531 91.8425 58.226 92.1538 58.3524C92.5987 58.5245 93.0074 58.7356 93.377 58.9972C94.0723 59.4852 94.6294 60.1554 94.9559 61.0086C95.0114 61.1551 95.6232 61.1884 96.3091 61.0837C96.9951 60.979 97.4958 60.7192 97.4449 60.5016C97.2 59.2713 96.58 57.9588 95.5863 56.9258C95.0751 56.3877 94.4972 55.9051 93.8688 55.5182C93.4371 55.241 93.0026 54.9751 92.55 54.7288C92.4469 54.6668 92.3437 54.6047 92.2378 54.554C90.2029 54.1991 87.9981 53.8378 85.9743 54.0159C85.6137 54.0337 85.2817 54.0948 84.9305 54.1271C84.7159 54.1936 84.5176 54.3004 84.3125 54.3814C83.1889 54.8099 82.1819 55.352 81.193 55.8746C80.5103 56.2814 79.796 56.6561 79.1381 57.0691C78.3 57.5693 77.4696 58.1437 76.7834 58.8268C76.6414 58.9718 76.8958 59.4816 77.3411 59.967C77.7835 60.4638 78.2716 60.7792 78.4394 60.6889C79.2633 60.2453 80.0089 59.7459 80.7679 59.2981C81.3619 58.9293 81.9942 58.6183 82.6495 58.3733C83.5556 58.0227 84.5201 57.8073 85.4503 57.7278C85.6231 57.7231 85.7862 57.7038 85.9532 57.7217C86.1927 57.6614 86.4378 57.5784 86.6868 57.5326C88.0901 57.1985 89.615 57.2203 90.9139 58.089C91.0121 58.0655 91.0894 58.0728 91.1639 58.0915Z" fill="#7EB5D2"/>
</svg>
