<svg width="174" height="114" viewBox="0 0 174 114" fill="none" xmlns="http://www.w3.org/2000/svg">
<path d="M8.90648 63.5385C9.46847 45.3293 23.656 30.3719 38.9678 27.6807C56.4121 24.6187 73.01 37.0888 77.2028 54.4614C82.2047 75.2335 67.6833 96.0295 44.9494 99.459C28.0227 102.013 15.4914 91.7874 10.8379 77.0994C9.46411 72.7946 8.77283 68.1969 8.90648 63.5385Z" fill="#D8E9F2"/>
<path d="M52.4261 95.6827C50.4937 96.3087 48.5812 97.0261 46.5613 97.3722C45.5613 97.5909 44.5663 97.8325 43.5614 97.9088C42.5539 98.0334 41.549 98.1695 40.5491 98.149C39.0892 98.241 37.6569 98.0998 36.2195 97.9955C34.8047 97.7547 33.3874 97.5623 32.0226 97.1312C29.298 96.3515 26.706 95.1601 24.3891 93.6094C22.2122 92.0999 20.2778 90.322 18.5634 88.3525C16.8916 86.3378 15.4822 84.146 14.2704 81.8393C11.9918 77.1702 10.5607 72.0645 10.232 66.8493C10.105 65.011 9.58539 63.5338 8.87795 63.533C8.19551 63.5268 7.55767 65.1017 7.64717 67.0678C7.90327 72.6099 9.29931 78.0343 11.6778 83.1002C12.9071 85.6064 14.4139 88.0041 16.1982 90.2335C18.0275 92.4291 20.1543 94.428 22.5586 96.139C25.0555 97.9134 27.9424 99.2557 30.9744 100.183C32.4867 100.69 34.074 100.941 35.6537 101.217C37.2586 101.369 38.8684 101.543 40.4782 101.478C41.6106 101.505 42.7381 101.39 43.8655 101.275C45.0029 101.206 46.1054 100.977 47.2128 100.77C49.4452 100.438 51.5952 99.7281 53.7602 99.0871L56.7103 97.9036C60.9629 95.849 64.8732 93.1276 68.1862 89.891C71.5317 86.6831 74.17 82.8764 76.1333 78.8584C78.0816 74.8317 79.3326 70.5509 79.8161 66.2346C80.2322 61.9091 79.8658 57.5993 78.8969 53.469C78.4823 52.0525 78.1427 50.6196 77.5706 49.2615C77.3033 48.5784 77.071 47.8756 76.7536 47.2033L75.7792 45.2035C75.367 44.3368 74.8022 43.5512 74.2825 42.7319L73.4928 41.517L72.6007 40.3724C69.387 36.159 65.3033 32.4589 60.3819 29.899C55.508 27.3167 49.8813 25.7244 44.0718 25.8707C39.9321 25.9269 35.7573 26.7803 31.9522 28.3661C28.1297 29.9319 24.6419 32.1302 21.5815 34.7255C13.9681 41.2353 8.85869 50.5706 7.8514 60.0972C7.72593 62.0386 8.1905 63.5637 8.86795 63.5471C9.5454 63.5305 10.2257 62.0899 10.3936 60.2828C11.6207 51.3421 16.44 42.6563 23.5259 36.6088C29.1566 31.8126 36.4993 28.5558 44.0036 28.6728C49.2007 28.6006 54.2673 30.1479 58.6413 32.6003C63.0503 35.0331 66.6867 38.544 69.513 42.4832L70.2526 43.5296L70.8998 44.632C71.3096 45.3678 71.8043 46.073 72.1216 46.8648L73.0436 48.6847C73.3459 49.2884 73.5682 49.9455 73.8231 50.5716C74.3827 51.8129 74.7124 53.1403 75.1145 54.4399C76.056 58.2053 76.4574 62.1367 76.129 66.0841C75.7355 70.0339 74.6296 73.96 72.8414 77.6406C71.0506 81.3099 68.615 84.7852 65.4945 87.6448C62.4191 90.5304 58.7838 92.8926 54.8812 94.5715L52.4261 95.6827Z" fill="#005AA4"/>
<path d="M95.5532 50.6628C96.1277 32.4509 110.303 17.4963 125.615 14.805C143.059 11.7431 159.657 24.2132 163.85 41.5857C168.851 62.3579 154.33 83.1539 131.596 86.5834C114.669 89.1374 102.138 78.9118 97.4847 64.2237C96.1108 59.9189 95.407 55.324 95.5532 50.6628Z" fill="#D8E9F2"/>
<path d="M139.072 82.8072C137.14 83.4333 135.227 84.1507 133.207 84.4968C132.208 84.7155 131.213 84.957 130.208 85.0333C129.2 85.158 128.195 85.2941 127.195 85.2735C125.735 85.3656 124.303 85.2243 122.866 85.12C121.451 84.8793 120.034 84.6869 118.669 84.2557C115.944 83.4761 113.352 82.2846 111.035 80.734C108.858 79.2245 106.924 77.4466 105.197 75.4798C103.525 73.4651 102.116 71.2733 100.904 68.9666C98.6255 64.2975 97.1944 59.1918 96.8658 53.9766C96.7387 52.1383 96.2191 50.6611 95.5117 50.6603C94.8292 50.6541 94.1914 52.229 94.2809 54.1951C94.537 59.7372 95.933 65.1615 98.3116 70.2274C99.5408 72.7337 101.048 75.1314 102.832 77.3608C104.661 79.5564 106.788 81.5553 109.192 83.2663C111.689 85.0407 114.576 86.383 117.608 87.3107C119.12 87.8173 120.708 88.0682 122.288 88.3446C123.89 88.4846 125.502 88.6702 127.112 88.6052C128.244 88.6326 129.372 88.5176 130.499 88.4026C131.637 88.3332 132.739 88.104 133.847 87.8977C136.079 87.5649 138.229 86.8554 140.394 86.2144L143.344 85.0309C147.597 82.9763 151.507 80.2549 154.82 77.0183C158.166 73.8104 160.804 70.0037 162.767 65.9857C164.715 61.959 165.966 57.6782 166.45 53.3619C166.866 49.0364 166.5 44.7265 165.531 40.5963C165.116 39.1798 164.776 37.7469 164.204 36.3888C163.937 35.7056 163.705 35.0028 163.387 34.3306L162.415 32.3422C162.003 31.4755 161.438 30.6899 160.919 29.8706L160.129 28.6557L159.237 27.5111C156.023 23.2977 151.94 19.5976 147.018 17.0377C142.157 14.4527 136.518 12.8631 130.708 13.0094C126.568 13.0656 122.394 13.919 118.588 15.5048C114.766 17.0706 111.278 19.2689 108.218 21.8642C100.604 28.374 95.4949 37.7093 94.4876 47.2359C94.3622 49.1773 94.8268 50.7024 95.5042 50.6859C96.1817 50.6693 96.8619 49.2286 97.0299 47.4215C98.257 38.4808 103.076 29.795 110.162 23.7475C115.793 18.9513 123.136 15.6945 130.64 15.8114C135.837 15.7393 140.904 17.2866 145.278 19.739C149.687 22.1718 153.323 25.6827 156.149 29.6219L156.889 30.6683L157.536 31.7707C157.948 32.5179 158.441 33.2117 158.758 34.0035L159.68 35.8234C159.982 36.4271 160.202 37.0728 160.459 37.7103C161.019 38.9516 161.349 40.279 161.748 41.5672C162.69 45.3326 163.091 49.2639 162.763 53.2114C162.369 57.1611 161.263 61.0873 159.475 64.7679C157.684 68.4371 155.249 71.9125 152.128 74.7721C149.053 77.6577 145.418 80.0198 141.515 81.6988L139.072 82.8072Z" fill="#005AA4"/>
<path d="M89.7459 54.6128C90.0784 54.5161 90.4134 54.4309 90.7484 54.4054C91.2234 54.3614 91.6833 54.3684 92.1307 54.438C92.9706 54.5653 93.768 54.9172 94.4403 55.5358C94.5552 55.6422 95.1177 55.3995 95.6853 55.0003C96.2528 54.601 96.5854 54.1455 96.443 53.9733C95.6758 52.9808 94.5361 52.0817 93.1864 51.5995C92.489 51.3453 91.7566 51.1706 91.0217 51.104C90.5117 51.0481 90.0043 51.0036 89.4893 50.9846C89.3693 50.975 89.2494 50.9654 89.1319 50.9671C87.1519 51.5557 85.0169 52.2141 83.2843 53.2749C82.9693 53.4514 82.6993 53.654 82.3993 53.8393C82.2367 53.9945 82.1067 54.1784 81.9592 54.3423C81.144 55.2263 80.4838 56.1602 79.8312 57.0685C79.401 57.7367 78.9284 58.3904 78.5233 59.0531C77.9956 59.8743 77.5079 60.7585 77.1977 61.6756C77.1352 61.8687 77.5901 62.2118 78.205 62.4482C78.8223 62.6959 79.3998 62.761 79.5098 62.6053C80.0499 61.8412 80.4951 61.0621 80.9752 60.3231C81.3429 59.7283 81.7705 59.1682 82.248 58.6571C82.9032 57.9396 83.6708 57.3172 84.4683 56.8317C84.6208 56.7505 84.7583 56.6606 84.9158 56.6023C85.1034 56.4416 85.2859 56.2582 85.4884 56.1062C86.596 55.1821 87.9711 54.5225 89.5209 54.7218C89.5984 54.657 89.6709 54.6292 89.7459 54.6128Z" fill="#005AA4"/>
</svg>
