<svg width="161" height="82" viewBox="0 0 161 82" fill="none" xmlns="http://www.w3.org/2000/svg">
<path d="M2.56607 30.7034C7.00597 13.0349 24.0619 1.45453 39.5951 2.09724C57.2908 2.83342 70.8408 18.5622 71.2246 36.4294C71.6725 57.7906 53.0428 75.0033 30.1011 73.4959C13.0197 72.3741 2.96271 59.707 1.55525 44.3638C1.13301 39.8649 1.4401 35.2257 2.56607 30.7034Z" fill="#E0E0F0"/>
<path d="M38.2123 71.4045C36.1906 71.6031 34.169 71.8953 32.1218 71.8018C31.0982 71.8018 30.0746 71.8252 29.0766 71.6849C28.0658 71.5914 27.055 71.5096 26.0825 71.2759C24.6367 71.0539 23.2676 70.6099 21.8857 70.2009C20.555 69.6633 19.2116 69.1725 17.9704 68.4597C15.4754 67.1159 13.1978 65.3981 11.2658 63.3882C9.46167 61.4484 7.95184 59.2983 6.69792 57.0079C5.49517 54.6825 4.58672 52.2402 3.89578 49.7278C2.66745 44.6796 2.36037 39.3861 3.15366 34.2211C3.42236 32.3981 3.23044 30.8439 2.5395 30.692C1.87416 30.5401 0.914526 31.9424 0.581853 33.8822C-0.35219 39.351 -0.147457 44.9484 1.09367 50.4056C1.75901 53.1166 2.71864 55.7809 3.98536 58.34C5.30325 60.8758 6.95382 63.283 8.93706 65.4682C10.9971 67.7352 13.5305 69.6633 16.2943 71.2175C17.6633 72.0355 19.1604 72.6198 20.6446 73.2274C22.18 73.7182 23.7154 74.2324 25.302 74.5128C26.4024 74.7816 27.5283 74.9101 28.6543 75.0387C29.7803 75.214 30.9063 75.2256 32.0322 75.2607C34.2842 75.4126 36.5361 75.1789 38.7881 75.0153L41.9229 74.4895C46.5163 73.391 50.9178 71.5681 54.8459 69.1141C58.7996 66.6952 62.1903 63.5401 64.9669 60.0344C67.7306 56.5171 69.8674 52.6024 71.2621 48.4891C72.5928 44.3524 73.1557 40.0638 73.0918 35.822C72.9894 34.3496 72.9638 32.8772 72.6951 31.4282C72.5799 30.7037 72.5032 29.9675 72.3368 29.243L71.8122 27.0812C71.5947 26.1464 71.2109 25.2583 70.8782 24.3468L70.3664 22.9913L69.7394 21.6825C67.5003 16.8797 64.3015 12.3925 60.0408 8.84006C55.8312 5.27597 50.6747 2.51817 44.9681 1.41973C40.912 0.590059 36.6513 0.531643 32.5952 1.26783C28.5264 1.98065 24.6495 3.38291 21.1052 5.26429C12.2766 9.99693 5.29046 18.0249 2.27082 27.1163C1.73342 28.9859 1.86137 30.5752 2.52672 30.7037C3.19206 30.8323 4.16448 29.5702 4.71467 27.8408C7.82388 19.3687 14.3878 11.9134 22.6022 7.51959C29.1278 4.0373 36.9967 2.42469 44.3027 4.14247C49.3952 5.18248 54.0142 7.77668 57.7632 11.1071C61.5505 14.4258 64.3527 18.6326 66.272 23.0847L66.771 24.265L67.1676 25.4803C67.4107 26.2866 67.7434 27.0812 67.8841 27.9226L68.396 29.8974C68.5623 30.5518 68.6391 31.2412 68.7542 31.9073C69.0357 33.2395 69.0741 34.6067 69.1893 35.9622C69.3044 39.8418 68.8566 43.7682 67.6922 47.5543C66.4639 51.3287 64.5446 54.9279 62.0112 58.1414C59.4777 61.3432 56.3557 64.2179 52.6963 66.3446C49.0753 68.5065 45.0193 70.0373 40.8481 70.8436L38.2123 71.4045Z" fill="#002776"/>
<path d="M89.9633 36.6397C94.416 18.9712 111.459 7.39081 126.992 8.03351C144.688 8.7697 158.238 24.4985 158.622 42.3657C159.07 63.7268 140.44 80.9396 117.498 79.4322C100.417 78.3104 90.36 65.6433 88.9525 50.3001C88.5303 45.8012 88.8245 41.162 89.9633 36.6397Z" fill="#E0E0F0"/>
<path d="M125.609 77.3408C123.587 77.5394 121.566 77.8316 119.518 77.7381C118.495 77.7381 117.471 77.7614 116.473 77.6212C115.462 77.5277 114.452 77.4459 113.479 77.2122C112.033 76.9902 110.664 76.5461 109.282 76.1371C107.952 75.5996 106.608 75.1088 105.367 74.396C102.872 73.0522 100.594 71.3344 98.6624 69.3245C96.8583 67.3847 95.3484 65.2345 94.0817 62.9442C92.879 60.6187 91.9705 58.1765 91.2796 55.6641C90.0512 50.6159 89.7442 45.3224 90.5375 40.1574C90.8062 38.3344 90.6142 36.7802 89.9233 36.6283C89.258 36.4764 88.2983 37.8787 87.9656 39.8185C87.0316 45.2873 87.2363 50.8847 88.4774 56.3418C89.1428 59.0529 90.1024 61.7172 91.3692 64.2763C92.6871 66.8121 94.3376 69.2193 96.3209 71.4045C98.3809 73.6715 100.914 75.5996 103.678 77.1538C105.047 77.9718 106.544 78.5561 108.028 79.1637C109.564 79.6428 111.099 80.1687 112.686 80.4491C113.786 80.7179 114.912 80.8464 116.038 80.975C117.164 81.1503 118.29 81.1619 119.416 81.197C121.668 81.3489 123.92 81.1152 126.172 80.9516L129.307 80.4258C133.9 79.3273 138.302 77.5044 142.23 75.0504C146.183 72.6315 149.574 69.4764 152.351 65.9707C155.114 62.4534 157.251 58.5387 158.646 54.4254C159.977 50.2887 160.54 46.0001 160.476 41.7583C160.373 40.2859 160.348 38.8135 160.079 37.3645C159.964 36.64 159.887 35.9038 159.721 35.1793L159.196 33.0292C158.979 32.0943 158.595 31.2062 158.262 30.2948L157.75 28.9392L157.123 27.6305C154.884 22.8277 151.685 18.3404 147.425 14.788C143.228 11.2239 138.059 8.46614 132.352 7.3677C128.296 6.53803 124.035 6.47961 119.979 7.2158C115.91 7.92862 112.033 9.33088 108.489 11.2123C99.6604 15.9449 92.6743 23.9729 89.6546 33.0642C89.1172 34.9339 89.2452 36.5232 89.9105 36.6517C90.5759 36.7802 91.5483 35.5182 92.0985 33.7887C95.2077 25.3167 101.772 17.8613 109.986 13.4676C116.512 9.98526 124.381 8.37266 131.687 10.0904C136.779 11.1304 141.398 13.7246 145.147 17.055C148.934 20.3737 151.736 24.5805 153.656 29.0327L154.155 30.2129L154.551 31.4283C154.795 32.2462 155.127 33.0292 155.268 33.8705L155.78 35.8454C155.946 36.4998 156.023 37.1775 156.138 37.8553C156.42 39.1875 156.458 40.5547 156.573 41.8985C156.688 45.7781 156.24 49.7044 155.076 53.4906C153.848 57.265 151.928 60.8641 149.395 64.0777C146.862 67.2795 143.74 70.1542 140.08 72.2809C136.459 74.4428 132.403 75.9735 128.232 76.7798L125.609 77.3408Z" fill="#002776"/>
<path d="M83.4461 39.2575C83.7916 39.2341 84.1371 39.2224 84.4698 39.2692C84.9432 39.3276 85.391 39.4328 85.8132 39.5964C86.6065 39.9002 87.3102 40.4144 87.8348 41.1622C87.9244 41.2908 88.5258 41.1739 89.1655 40.9052C89.8053 40.6364 90.2275 40.2624 90.1252 40.0638C89.5878 38.9303 88.6665 37.8085 87.451 37.0489C86.824 36.6516 86.1459 36.3244 85.4422 36.1024C84.9559 35.9388 84.4697 35.7869 83.9707 35.6583C83.8556 35.6233 83.7404 35.5882 83.6253 35.5648C81.5653 35.7168 79.3389 35.9037 77.4196 36.5698C77.0742 36.675 76.7671 36.8152 76.4344 36.9321C76.2425 37.0489 76.0762 37.2008 75.897 37.3294C74.9118 38.0188 74.0673 38.7901 73.2357 39.5379C72.6727 40.0989 72.0713 40.6364 71.5339 41.1973C70.8429 41.8867 70.1776 42.6463 69.6786 43.476C69.5763 43.6512 69.9473 44.0836 70.4975 44.4459C71.0477 44.8198 71.5979 45.0068 71.7386 44.8782C72.4295 44.2472 73.0309 43.5812 73.6579 42.9618C74.1441 42.4593 74.6815 42.0036 75.2573 41.6063C76.0506 41.0454 76.9334 40.6013 77.8163 40.2975C77.9826 40.2508 78.1362 40.1923 78.3025 40.169C78.52 40.0521 78.7375 39.9119 78.9678 39.8067C80.2474 39.1406 81.7316 38.7901 83.203 39.3159C83.2926 39.2692 83.3694 39.2575 83.4461 39.2575Z" fill="#002776"/>
</svg>
