<svg width="170" height="100" viewBox="0 0 170 100" fill="none" xmlns="http://www.w3.org/2000/svg">
<path d="M8.75621 30.2385C15.3332 13.2492 33.6826 3.85205 49.0192 6.39827C66.4904 9.30294 78.0054 26.5773 76.1912 44.3563C74.0112 65.6106 53.4079 80.4042 30.8253 76.0896C14.011 72.8777 5.58653 59.071 6.07476 43.6712C6.20844 39.1545 7.08317 34.5882 8.75621 30.2385Z" fill="#FAF0E7"/>
<path d="M39.132 75.0107C37.1012 74.9595 35.0591 75.001 33.0388 74.6567C32.023 74.531 31.0043 74.4284 30.031 74.1666C29.0394 73.9496 28.0463 73.7443 27.1099 73.3929C25.7023 72.9949 24.3981 72.386 23.077 71.8103C21.8224 71.1134 20.5494 70.4612 19.4053 69.6013C17.0942 67.9611 15.045 65.9766 13.3745 63.7445C11.8224 61.5978 10.5881 59.2784 9.62509 56.8514C8.71716 54.3958 8.11564 51.8604 7.73861 49.2821C7.13979 44.1213 7.48538 38.8302 8.90723 33.8017C9.39786 32.0256 9.39833 30.4596 8.73129 30.224C8.08965 29.9915 6.96501 31.2652 6.39654 33.1494C4.79768 38.4621 4.31318 44.0422 4.87445 49.6105C5.20168 52.3828 5.82671 55.1448 6.76942 57.8401C7.7658 60.5186 9.10811 63.1104 10.8079 65.5227C12.5737 68.0256 14.8511 70.2504 17.403 72.1323C18.6612 73.1123 20.0751 73.8761 21.4734 74.6615C22.9369 75.3372 24.3975 76.0361 25.9376 76.5094C26.9966 76.9113 28.0983 77.1772 29.1999 77.4431C30.2958 77.7554 31.4119 77.9053 32.525 78.0784C34.7412 78.5058 37.0048 78.5506 39.2598 78.6649L42.4355 78.5282C47.1291 78.0024 51.7212 76.734 55.921 74.7812C60.1419 72.8664 63.8946 70.1518 67.0808 67.0138C70.2557 63.8626 72.8573 60.2401 74.7467 56.3293C76.5756 52.3875 77.6611 48.2005 78.1188 43.983C78.1981 42.5092 78.3536 41.0448 78.265 39.5738C78.2397 38.8406 78.254 38.1005 78.1779 37.3611L77.9229 35.1512C77.8218 34.1967 77.55 33.2682 77.3318 32.3227L76.9904 30.9146L76.529 29.5387C74.8969 24.4972 72.2737 19.651 68.4816 15.602C64.7418 11.5478 59.9632 8.17734 54.4348 6.38612C50.5114 5.06441 46.2901 4.48297 42.1743 4.71527C38.0487 4.9228 34.0289 5.83812 30.2803 7.26981C20.9372 10.8819 13.0177 17.9908 8.90396 26.6423C8.14093 28.4318 8.07266 30.0247 8.71717 30.234C9.36168 30.4433 10.4818 29.3103 11.2403 27.6615C15.3668 19.6357 22.7969 13.0432 31.489 9.69195C38.3929 7.03774 46.4004 6.40412 53.44 9.00649C58.3661 10.6643 62.6314 13.8063 65.9428 17.572C69.2937 21.3309 71.5578 25.8501 72.9156 30.5044L73.2658 31.737L73.5101 32.9918C73.6523 33.8218 73.8848 34.6513 73.9211 35.5036L74.1865 37.5264C74.2712 38.1962 74.2626 38.8899 74.2951 39.5651C74.4108 40.9217 74.2809 42.2833 74.2286 43.6427C73.8663 47.507 72.9395 51.3486 71.3188 54.963C69.636 58.5579 67.2891 61.894 64.3801 64.7719C61.4725 67.6383 58.0209 70.1076 54.128 71.7686C50.2688 73.4692 46.0554 74.4901 41.8167 74.7778L39.132 75.0107Z" fill="#002776"/>
<path d="M94.7618 46.8674C101.352 29.8798 119.688 20.481 135.025 23.0272C152.496 25.9319 164.011 43.2062 162.197 60.9852C160.017 82.2396 139.414 97.0332 116.831 92.7186C100.017 89.5067 91.5922 75.7 92.0804 60.3001C92.2141 55.7834 93.0761 51.2155 94.7618 46.8674Z" fill="#FAF0E7"/>
<path d="M125.137 91.6393C123.106 91.5881 121.064 91.6297 119.044 91.2854C118.028 91.1596 117.009 91.057 116.036 90.7952C115.044 90.5783 114.051 90.3729 113.115 90.0215C111.707 89.6236 110.403 89.0147 109.082 88.439C107.827 87.742 106.554 87.0899 105.41 86.23C103.099 84.5898 101.05 82.6053 99.3794 80.3732C97.8272 78.2264 96.593 75.9071 95.6173 73.4784C94.7093 71.0229 94.1078 68.4875 93.7308 65.9092C93.132 60.7484 93.4776 55.4572 94.8994 50.4288C95.39 48.6527 95.3905 47.0867 94.7235 46.8511C94.0818 46.6186 92.9572 47.8923 92.3887 49.7765C90.7898 55.0892 90.3053 60.6693 90.8666 66.2376C91.1938 69.0098 91.8189 71.7719 92.7616 74.4672C93.758 77.1457 95.1003 79.7375 96.8 82.1498C98.5659 84.6527 100.843 86.8774 103.395 88.7594C104.653 89.7394 106.067 90.5032 107.466 91.2886C108.931 91.9527 110.39 92.6632 111.93 93.1364C112.989 93.5384 114.09 93.8043 115.192 94.0702C116.288 94.3825 117.404 94.5324 118.517 94.7055C120.733 95.1329 122.997 95.1777 125.252 95.292L128.428 95.1553C133.121 94.6295 137.713 93.3611 141.913 91.4083C146.134 89.4935 149.887 86.7788 153.073 83.6408C156.248 80.4897 158.849 76.8672 160.739 72.9564C162.568 69.0146 163.653 64.8276 164.111 60.61C164.19 59.1362 164.346 57.6719 164.257 56.2008C164.232 55.4677 164.246 54.7276 164.17 53.9882L163.914 51.7899C163.813 50.8354 163.541 49.9069 163.323 48.9614L162.981 47.5533L162.52 46.1774C160.888 41.1359 158.264 36.2897 154.472 32.2407C150.745 28.188 145.954 24.816 140.426 23.0248C136.502 21.7031 132.281 21.1216 128.165 21.3539C124.039 21.5615 120.02 22.4768 116.271 23.9085C106.928 27.5206 99.0084 34.6295 94.8947 43.2809C94.1317 45.0705 94.0634 46.6634 94.7079 46.8727C95.3524 47.082 96.4725 45.949 97.231 44.3002C101.358 36.2744 108.788 29.6819 117.48 26.3306C124.384 23.6764 132.391 23.0428 139.431 25.6452C144.357 27.3029 148.622 30.445 151.934 34.2107C155.284 37.9696 157.549 42.4888 158.906 47.143L159.257 48.3756L159.501 49.6305C159.642 50.4721 159.876 51.29 159.912 52.1423L160.177 54.165C160.262 54.8349 160.255 55.517 160.286 56.2037C160.401 57.5604 160.272 58.9219 160.221 60.2698C159.858 64.1341 158.932 67.9757 157.311 71.5901C155.628 75.185 153.281 78.5211 150.372 81.399C147.465 84.2653 144.013 86.7347 140.12 88.3957C136.261 90.0963 132.048 91.1172 127.809 91.4049L125.137 91.6393Z" fill="#002776"/>
<path d="M87.9725 48.6646C88.3182 48.6838 88.6625 48.7147 88.9869 48.8019C89.4496 48.9181 89.8811 49.0775 90.28 49.2917C91.03 49.6907 91.6652 50.2874 92.094 51.0941C92.1671 51.2327 92.7782 51.1906 93.4462 51.0025C94.1141 50.8143 94.5791 50.4951 94.5019 50.2854C94.1078 49.0944 93.3314 47.8679 92.2184 46.9648C91.645 46.4935 91.0122 46.0854 90.341 45.7786C89.8786 45.5565 89.4148 45.346 88.9353 45.1572C88.8253 45.1082 88.7154 45.0593 88.604 45.0219C86.5409 44.9196 84.3084 44.8316 82.3219 45.2569C81.9661 45.3188 81.6441 45.4202 81.2996 45.4953C81.0948 45.5877 80.911 45.7181 80.7175 45.8236C79.655 46.3868 78.7222 47.0485 77.8049 47.6885C77.1773 48.176 76.5144 48.6356 75.9122 49.1262C75.1418 49.7255 74.3882 50.3976 73.791 51.1597C73.6679 51.321 73.983 51.7957 74.4845 52.2228C74.9846 52.6615 75.5077 52.9147 75.6631 52.8044C76.4264 52.263 77.105 51.6759 77.8033 51.1383C78.3476 50.6994 78.9369 50.3131 79.5571 49.9895C80.4133 49.5303 81.344 49.1981 82.2575 49.0051C82.4284 48.9791 82.5879 48.94 82.7559 48.9372C82.9861 48.848 83.2192 48.7355 83.4607 48.6595C84.8123 48.1556 86.3284 47.9901 87.7241 48.6927C87.8187 48.6573 87.8963 48.6552 87.9725 48.6646Z" fill="#002776"/>
</svg>
