<svg width="127" height="146" viewBox="0 0 127 146" fill="none" xmlns="http://www.w3.org/2000/svg">
<path d="M93.4291 145.5C41.6725 75.9016 44.7921 87.3519 39.8291 79.7644L66.0265 66.1413C78.682 84.6273 126.043 121.116 127 121.496" fill="#005AA4"/>
<path d="M68.0826 84.0754C64.0767 87.5933 55.4979 90.18 49.6841 90.18C37.6667 90.18 30.5058 78.5572 19.4455 71.2111C17.3185 69.7971 15.4751 68.0037 14.0926 65.8998C9.62591 59.1055 4.87564 54.2426 1.15342 51.6215C-0.441821 50.5178 -0.370923 48.2071 1.29522 47.1724C2.46506 46.4482 3.88305 46.1378 5.40739 46.1378C15.1206 46.1378 17.9921 55.3463 24.6212 59.278C28.4497 59.1745 31.7466 57.0707 33.0228 53.6218L68.0826 84.0754Z" fill="#005AA4"/>
<path d="M31.6402 67.2449C30.3994 64.3824 28.627 47.7588 28.627 42.5509C28.627 41.8612 28.6269 41.1369 28.6624 40.4471C28.7333 38.7917 30.0449 37.4811 31.6756 37.4121C32.3137 37.3776 32.9518 37.3776 33.5545 37.3776C45.0757 37.6535 56.2423 43.7925 65.9201 51.6905C66.8064 52.4147 67.409 53.4839 67.5508 54.6565C68.7206 63.6581 70.1741 72.5907 70.1741 81.6957C70.2095 81.6613 42.4878 78.6952 31.6402 67.2449Z" fill="#005AA4"/>
<path d="M30.116 60.0712C30.1514 60.2437 30.1869 60.4161 30.2223 60.623C30.2578 60.8989 30.3287 61.1404 30.3641 61.4163C30.435 61.8991 30.5059 62.4164 30.5059 62.8993C30.5059 63.0028 30.5768 63.0717 30.6832 63.0717C30.7895 63.0717 30.8604 63.0028 30.8604 62.8993C30.8604 62.382 30.825 61.8646 30.7895 61.3818C30.7541 61.1059 30.7541 60.8645 30.7186 60.5885L30.6477 60.0367V59.8988C30.4705 59.14 30.3641 58.3813 30.2578 57.6225L30.2223 57.2431L30.1514 57.0017C30.0451 56.5534 29.9742 56.0705 29.9033 55.6222C29.8324 55.2773 29.7969 54.9669 29.7615 54.622C29.6906 54.2081 29.6197 53.7598 29.5488 53.3459C29.5488 53.2769 29.4424 53.2079 29.3361 53.2079C29.2297 53.2079 29.1588 53.3114 29.1943 53.3804C29.2297 53.7943 29.3006 54.2426 29.3715 54.6565C29.407 55.0014 29.4779 55.3118 29.5133 55.6566C29.5842 56.1395 29.6197 56.5878 29.6551 57.0707L29.6906 57.3121L29.7615 57.6915C29.8678 58.4502 30.0451 59.209 30.116 60.0022V60.0712Z" fill="#E0E0F0"/>
<path d="M58.1923 55.1048C58.4404 50.4144 59.3621 45.241 59.1494 41.1714C59.0785 40.1022 58.9721 38.8606 58.9367 37.6535C58.9367 37.4121 58.9013 37.2051 58.9013 36.9637C58.8658 35.8256 58.4404 34.7219 57.696 33.8597C55.2145 30.8592 52.9811 27.9966 52.8039 25.2375C52.733 24.0304 53.1584 22.9613 54.3637 22.2025C55.4626 21.5127 56.8806 21.7542 57.696 22.7543C59.6811 25.2375 62.4462 28.6174 64.9986 31.7904C65.814 32.8251 66.3457 34.0322 66.523 35.3083C67.6574 43.9305 68.3309 52.5872 68.7917 61.3128C68.8626 62.9683 68.969 64.6582 69.0399 66.3137" fill="#005AA4"/>
<path d="M61.2762 56.6224C61.2762 47.2069 56.7741 20.754 38.6948 9.57965C37.454 8.8209 35.7524 9.40721 35.3625 10.8212C34.5471 13.8563 36.5323 17.6845 43.9768 26.5481C44.6503 27.3414 45.1466 28.2726 45.4302 29.3072C46.6001 33.3424 49.5778 44.2754 49.6487 50.5524" fill="#005AA4"/>
<path d="M51.7403 22.7199C50.6768 21.03 49.4715 19.34 48.2308 17.719C47.8763 17.2707 47.5572 16.8568 47.2027 16.4774C46.8837 16.0981 46.5646 15.7187 46.2101 15.3738L45.6429 14.822L45.0757 14.2702C44.7212 13.9253 44.3667 13.6149 44.0123 13.3045C43.4805 12.8216 42.9488 12.4078 42.417 11.9594C41.3535 11.1662 40.29 10.3729 39.1556 9.68315C38.9429 9.5452 38.7657 9.51071 38.6948 9.61418C38.6593 9.68315 38.7657 9.8556 38.9429 9.99355C40.0773 10.7178 41.1053 11.5111 42.1334 12.3388C42.6651 12.7871 43.1615 13.2355 43.6578 13.6839C44.0123 13.9943 44.3667 14.3391 44.6858 14.684L45.2175 15.2359C45.3948 15.4428 45.572 15.6152 45.7493 15.8222C46.0683 16.167 46.3874 16.5119 46.7064 16.8913C47.0609 17.2707 47.38 17.6501 47.7345 18.0984C49.0461 19.6159 50.216 21.3059 51.244 22.9958C51.4212 23.2717 51.5985 23.5821 51.7757 23.8925C52.7683 25.5135 53.6546 27.2724 54.4345 28.9624C55.2498 30.8248 56.0297 32.7562 56.7387 34.6875C57.0223 35.4118 57.2705 36.1361 57.5186 36.8603C57.9086 37.9985 58.2631 39.1711 58.5821 40.3437C58.8303 41.1714 59.0429 42.0337 59.2202 42.8959C59.4683 43.965 59.7165 45.0687 59.9292 46.1378C59.9646 46.3448 60.071 46.5172 60.1773 46.5172C60.2837 46.5172 60.3191 46.3103 60.2837 46.1033C60.1064 44.9997 59.8583 43.896 59.6102 42.8269C59.3975 41.9647 59.1847 41.1369 58.972 40.2747C58.653 39.1021 58.334 37.895 57.9795 36.7224C57.7668 35.9981 57.5186 35.2394 57.2705 34.5151C56.5969 32.5492 55.7816 30.5834 54.9308 28.7555C54.1154 27.031 53.1937 25.3066 52.2366 23.6511C52.1302 23.3407 51.953 23.0303 51.7403 22.7199Z" fill="#E0E0F0"/>
<path d="M39.3681 47.7242C39.4744 45.6204 39.8289 43.4821 39.5099 41.3438C37.9501 30.2729 37.7374 29.1003 36.8511 22.7199C36.6739 21.3748 36.1421 20.0987 35.2913 18.9951C29.7257 11.7524 25.9326 8.54497 25.9326 5.23404C25.9326 3.82 26.5352 2.40596 27.4924 1.33681C28.4141 0.302142 30.0093 0.233165 31.0728 1.09538C59.0427 24.2719 47.4151 44.5168 54.7887 58.7952" fill="#005AA4"/>
<path d="M51.7402 42.344L51.6339 40.8265C51.6339 40.5506 51.5984 40.3091 51.563 40.0332L51.5275 39.4814C51.5275 39.2745 51.4921 39.0675 51.4921 38.8606C51.4566 38.5157 51.3857 38.1364 51.3148 37.688C51.173 36.9292 51.0667 36.136 50.9603 35.3772C50.9249 34.9979 50.854 34.6185 50.7831 34.2391C50.7122 33.8597 50.6413 33.4804 50.5349 33.101C50.464 32.6871 50.3577 32.2733 50.2868 31.8594C50.2159 31.4455 50.1095 31.0317 50.0386 30.6178C49.8968 29.928 49.755 29.2382 49.5423 28.5485C49.4005 27.9966 49.2587 27.4448 49.0815 26.9275C48.9397 26.4791 48.7979 25.9963 48.6206 25.5135C48.4788 25.0306 48.3016 24.5823 48.1598 24.0994L48.0889 23.8925C47.9825 23.5476 47.8762 23.2372 47.7698 22.8923C47.6635 22.5474 47.5217 22.237 47.3799 21.8921C47.2026 21.4438 47.0254 21.0299 46.8127 20.5816C46.6709 20.3056 46.5291 20.0297 46.4227 19.7538C46.1037 19.133 45.8555 18.4432 45.5365 17.8224C45.1465 17.0637 44.8275 16.2704 44.3312 15.5807C44.1185 15.2703 43.9412 14.9254 43.764 14.615C43.5868 14.2701 43.4095 13.9597 43.1968 13.6493C42.9841 13.3044 42.7714 12.9595 42.5587 12.6146C42.346 12.2697 42.1333 11.9249 41.8497 11.6145L41.2825 10.9247C40.9635 10.5453 40.6799 10.1659 40.3608 9.82104C40.1127 9.57962 39.9 9.30371 39.6873 9.0278C39.4037 8.7174 39.1201 8.37251 38.801 8.02762C38.7301 7.95865 38.6238 7.95865 38.5529 8.02762C38.482 8.0966 38.482 8.20007 38.5174 8.26905C38.801 8.61393 39.0846 8.95882 39.3682 9.26922C39.5809 9.54513 39.8291 9.78655 40.0418 10.0625C40.3254 10.4418 40.609 10.8212 40.8571 11.2351C41.0344 11.4765 41.2116 11.7179 41.3534 11.9593C41.6016 12.2697 41.8143 12.6491 42.0269 12.9595C42.2396 13.3044 42.4878 13.6148 42.7005 13.9597C42.9132 14.2701 43.1259 14.5805 43.3032 14.8909C43.4804 15.2013 43.6931 15.5462 43.8703 15.8566C44.2603 16.6153 44.6502 17.3741 45.0756 18.0984C45.4301 18.6847 45.7137 19.34 45.9973 19.9952L46.3518 20.8575C46.5291 21.3058 46.6709 21.7197 46.8481 22.168L46.9545 22.4784C47.0608 22.7543 47.1672 23.0303 47.309 23.3062C47.4153 23.5821 47.5217 23.858 47.628 24.1339L47.6989 24.3408C47.8762 24.7892 48.0534 25.272 48.1952 25.7204C48.337 26.2032 48.4788 26.6516 48.5852 27.1344C48.7624 27.6518 48.8688 28.2036 49.0106 28.7554C49.1878 29.4452 49.4005 30.1349 49.5423 30.8247C49.6487 31.2386 49.7196 31.618 49.8259 32.0318C49.9323 32.4457 50.0032 32.8596 50.0741 33.2389C50.1095 33.6183 50.1804 33.9977 50.2513 34.3771C50.3222 34.7564 50.3931 35.1358 50.464 35.4807C50.6058 36.2395 50.7476 36.9982 50.7831 37.7915C50.8185 38.2053 50.854 38.5847 50.9249 38.9641L51.0312 39.5504L51.1376 40.1022C51.173 40.3781 51.2085 40.6195 51.2439 40.8955L51.4212 42.413C51.4212 42.5164 51.5275 42.5509 51.6339 42.5509C51.7402 42.5509 51.7402 42.4475 51.7402 42.344Z" fill="#E0E0F0"/>
<path d="M46.2808 50.9662C41.885 29.997 26.9961 12.6492 20.4733 4.57878C19.5162 3.40617 17.6728 3.26821 16.6448 4.40634C15.9358 5.16509 15.4395 6.33771 15.4395 8.44153C15.4395 12.5112 18.9135 17.3052 22.0331 20.9955C23.203 22.3405 24.0538 23.927 24.5501 25.617C26.1807 31.1352 28.6977 40.1022 31.2855 46.7931" fill="#005AA4"/>
<path d="M33.3063 21.6852L33.6962 22.4095L33.9089 22.7889C33.9444 22.8923 34.0152 22.9613 34.0507 23.0648C34.0861 23.1682 34.1571 23.2717 34.1925 23.3407C34.2989 23.5131 34.4052 23.6856 34.547 23.858C34.8306 24.1684 35.0078 24.5478 35.2205 24.9272C35.3978 25.2721 35.6105 25.6514 35.8586 25.9618C36.1068 26.3412 36.3195 26.7551 36.4967 27.1345C36.674 27.4793 36.8512 27.8242 37.0285 28.1346L37.4893 28.9279C37.7375 29.3762 38.0211 29.8591 38.2338 30.3074L38.2692 30.4109C38.411 30.7558 38.5528 31.1007 38.7301 31.4456C38.8364 31.6525 38.9782 31.8939 39.0846 32.1008L39.3327 32.5147C39.51 32.8251 39.6872 33.17 39.829 33.5149C40.0062 33.9288 40.1835 34.3426 40.4316 34.722C40.6089 35.0669 40.7862 35.4463 40.928 35.7912C41.0698 36.1705 41.247 36.5844 41.4597 36.9638L41.6724 37.3776C41.7787 37.5846 41.9205 37.826 42.0269 38.0674C42.0978 38.2399 42.1687 38.4123 42.2396 38.5503C42.3105 38.7572 42.4168 38.9641 42.5232 39.1711C42.5586 39.2055 42.6295 39.2055 42.7359 39.1711C42.8422 39.1366 42.8777 39.0676 42.8777 39.0331C42.8068 38.8262 42.7359 38.5847 42.6295 38.3778C42.5586 38.2054 42.4877 38.0329 42.4168 37.8605C42.3105 37.6191 42.2396 37.3776 42.1687 37.1362C42.1332 36.9983 42.0623 36.8258 42.0269 36.6879C41.8851 36.274 41.6724 35.8946 41.4951 35.5152C41.3179 35.1704 41.1406 34.791 40.9634 34.4461C40.8216 33.9977 40.6089 33.6184 40.3962 33.2045C40.219 32.8941 40.0417 32.5492 39.8999 32.2043L39.6872 31.756C39.5809 31.5145 39.4745 31.3076 39.3682 31.0662L39.2973 30.8937C39.1555 30.6178 38.9782 30.3419 38.801 30.066L38.7301 29.9625C38.4465 29.5142 38.2338 29.0313 37.9856 28.5485C37.8438 28.2726 37.702 27.9967 37.5602 27.7553C37.383 27.4104 37.1703 27.1 36.993 26.7551C36.7449 26.3757 36.5322 25.9963 36.3195 25.5825C36.1422 25.2031 35.9295 24.8582 35.7168 24.5133C35.5041 24.1684 35.256 23.8235 35.0787 23.4097C34.9724 23.2027 34.866 23.0303 34.7597 22.8579C34.6888 22.7544 34.6179 22.6854 34.547 22.5819L34.3698 22.3405L34.1216 21.9956L33.6253 21.3403C33.5898 21.3059 33.519 21.3059 33.4126 21.3748C33.3063 21.4438 33.2708 21.6507 33.3063 21.6852Z" fill="#E0E0F0"/>
</svg>
