<svg xmlns="http://www.w3.org/2000/svg" width="203" height="140" fill="none"><path fill="#005AA4" d="M120.313 38.0812c9.233-8.6117 22.758-13.3464 33.79-14.833 28.212-3.7983 44.161 17.4525 48.053 42.8487 3.182 20.7531-2.552 53.0521-18.615 55.8871-19.217 3.399-41.007-44.2499-48.096-83.392"/><path fill="#005AA4" d="M39.6456 79.7512C14.128 74.9051.000168 56.647.000168 41.0806c0-17.9241 18.005632-32.1284 39.079132-32.1284 4.4799 0 9.1032.64178 13.7193 2.0301C66.1595 4.30256 81.4055 0 95.6122 0c28.6718 0 48.1108 17.983 44.6338 46.4571 4.523 6.6929 8.208 17.983 8.208 26.2214 0 10.4453-4.602 19.2403-16.422 23.5756L39.6456 79.7512Z"/><path fill="#F8E9DD" d="M124.843 68.8475c-.574-1.9843-.99-4.0603-.99-6.1362 0-4.3288 2.28-12.0301 5.986-12.0301 4.071 0 6.587 9.5022 6.587 15.0098 0 5.8284-1.72 11.9908-5.462 15.7171"/><path fill="#EE8D9C" d="M134.807 134.827s-6.165 1.368-12.329-.217l11.741-9.508.588 9.725Z"/><path fill="#F8E9DD" d="M110.479 53.3792c-15.9197-6.8239-42.9353-4.7413-56.6188-31.6307-15.3463 8.592-23.0375 20.0852-23.0375 38.8409 1.3619 8.7754 7.5119 12.41 10.121 21.0216 2.5805 1.133 5.6985 1.4277 8.8667 1.4277 3.7201 0 5.9565-.3406 11.3754-.3406 3.1969 0 6.3722.0197 9.5476.0197 11.4614 0 49.6446.1113 49.6446-10.596 0-2.6195-1.233-6.0773-4.172-10.668-1.656-2.5998-2.731-6.7845-5.727-8.0746Z"/><path fill="#F8E9DD" d="M122.42 108.775c0 13.393-19.339 31.225-39.9394 31.225-29.4169 0-40.6274-22.593-49.9958-45.9594l22.5501-20.8971s4.229-4.8331 11.103 2.3313c6.874 7.1578 37.3301 2.6654 37.2801 2.888-.05.2227 11.748 15.5534 11.748 15.5534l7.254 14.8588Z"/><path fill="#002776" d="m93.1561 114.015.4086-.642c.129-.216.2365-.446.3512-.668.3512-.642.5949-1.316.8673-1.991.1147-.321.2007-.655.301-.982.1076-.328.1936-.655.2438-.996l.1935-1.002.0932-1.015c.0215-.242.2007-.425.3942-.425s.3369.203.3297.458l-.0573 1.067-.1577 1.061c-.043.354-.1219.708-.2079 1.055-.086.347-.1577.7-.2652 1.041-.2437.707-.4659 1.421-.8028 2.102l-.3297.727-.3799.701-.172.334c-1.2831 1.853-2.8456 3.608-4.7379 4.951l-1.0035.674c-.2294.125-.4803.229-.7168.341-1.2831.661-2.7095 1.074-4.143 1.342-.5233.059-1.0393.177-1.5698.19-.5304.013-1.0537.052-1.5841.046-1.3188-.039-2.6664-.275-3.9208-.694-.258-.085-.4014-.295-.3297-.459.0645-.163.3154-.235.5591-.17 1.2185.334 2.4944.55 3.7344.583.4946.006.9892-.033 1.4838-.046.4946-.013.9748-.144 1.4694-.209 1.3404-.289 2.6449-.747 3.7989-1.428.2007-.118.4086-.229.6093-.354l.9605-.602c1.8063-1.186 3.376-2.829 4.3939-4.696l.1863-.294ZM73.5579 42.9537c-.4516.0197-.9031.0459-1.3475.0982-.6523.0655-1.2974.1572-1.9425.2685-1.2186.2031-2.4371.4716-3.6341.7924-.215.059-.4301-.0393-.4946-.2095-.0645-.1703.0645-.3537.2796-.4257 1.2113-.3733 2.437-.7073 3.6842-.9758.6451-.144 1.3046-.2685 1.964-.3667.4659-.072.9247-.1441 1.3906-.203l.3297-.0393c1.9783-.0458 3.9996 0 5.9349.2751.3369.0458.6666.0982 1.0035.1637.215.0524.4229.1048.6308.1637 1.1612.3012 2.2865.6811 3.3904 1.1002.7884.3143 1.5769.6221 2.3438.9692.9605.4257 1.9353.9037 2.86 1.4342.1864.1048.258.3143.1577.465-.1004.1506-.3297.1964-.5233.1047-.9461-.4649-1.9138-.9233-2.8528-1.3425-.7526-.3405-1.5195-.6352-2.308-.9102-1.0895-.3733-2.2077-.668-3.3402-.8841-.2007-.0393-.4014-.0655-.6021-.0983-.3154-.072-.6379-.1375-.9533-.1899-1.8278-.334-3.7774-.4453-5.6697-.1964l-.3011.0065ZM35.132 48.5461l1.2185-.2554c.5877-.1179 1.1755-.2161 1.7704-.3143 1.1254-.1507 2.2507-.2751 3.3832-.3078.2007-.0066.3656.1309.3799.3143.0072.1768-.1433.334-.3369.3471-1.1038.072-2.1933.2554-3.2756.465-.5591.1244-1.1182.2423-1.6701.3863l-1.1469.3406-.2652.0982c-1.6414.3536-3.2327 1.002-4.6304 1.7944-.2509.1244-.4874.275-.7168.4256l-.4802.2554c-.4444.2293-.8243.5305-1.2401.799-.3942.2881-.7526.6156-1.1253.9299l-.7025.7597c-.2437.2488-.4014.5501-.6021.8251-.473.7008-.8242 1.4932-1.0895 2.2987-.0573.1637-.258.2619-.4444.2292-.1863-.0328-.301-.203-.2508-.3864.2007-.8906.5877-1.7682 1.0966-2.5278.2151-.2947.3943-.6222.6451-.8907l.7312-.8382c.387-.3471.7454-.7204 1.1468-1.0478.4157-.3078.81-.668 1.2544-.9431l.4587-.3143c.2581-.1506.5161-.3012.7885-.4257 1.5267-.7727 3.1897-1.3752 4.8383-1.945l.2652-.072Z"/><path fill="#fff" d="M103.32 67.7864c-2.487-9.9017-12.0422-16.3916-20.7439-16.0314-9.9131.4126-17.5038 9.2272-17.7188 19.2403-.2509 11.9712 10.1854 21.6176 23.0373 20.7728 9.569-.6287 15.2034-7.7276 15.9914-16.3261.237-2.5213.072-5.1212-.566-7.6556Z"/><path fill="#002776" d="M83.3596 90.596c1.1325.1114 2.2651.2751 3.4119.2227.5734 0 1.1468.0131 1.7059-.0655.5663-.0524 1.1326-.0982 1.6773-.2292.81-.1244 1.5769-.3733 2.3511-.6025.7454-.3012 1.498-.5763 2.1933-.9758 1.3977-.7531 2.6736-1.7157 3.7559-2.8421 1.0107-1.0871 1.857-2.2921 2.559-3.5757.674-1.3032 1.183-2.6719 1.57-4.0799.688-2.8291.86-5.7956.415-8.6902-.15-1.0216-.043-1.8926.344-1.9777.373-.0852.911.7007 1.097 1.7878.523 3.0648.409 6.2017-.287 9.26-.372 1.5193-.91 3.0124-1.619 4.4466-.739 1.4211-1.663 2.7701-2.7744 3.9947-1.154 1.2705-2.5733 2.3511-4.1215 3.2221-.767.4584-1.6056.7858-2.4371 1.1264-.8601.275-1.7202.5631-2.6091.7203-.6164.1506-1.2472.2227-1.8779.2947-.6308.0982-1.2616.1048-1.8923.1244-1.2616.0852-2.5231-.0458-3.7846-.1375l-1.7561-.2947c-2.5733-.6156-5.039-1.6372-7.2395-3.0124-2.2149-1.3556-4.1144-3.1238-5.6698-5.0884-1.5482-1.9712-2.7453-4.1651-3.5265-6.4702-.7455-2.3183-1.0609-4.7217-1.025-7.0989.0573-.8252.0716-1.6503.2222-2.4624.0645-.406.1075-.8186.2007-1.2246l.2938-1.2115c.1219-.5239.3369-1.0216.5233-1.5324l.2867-.7597.3512-.7335c1.2544-2.6915 3.0464-5.2063 5.4332-7.1971 2.3583-1.9974 5.2469-3.5429 8.4437-4.1585 2.2722-.4649 4.6591-.4977 6.9313-.0851 2.2793.3995 4.4512 1.1853 6.4367 2.2397 4.9458 2.6522 8.859 7.1513 10.551 12.2462.301 1.0478.229 1.9385-.143 2.0105-.373.072-.918-.6352-1.226-1.6045-1.742-4.7478-5.4189-8.926-10.0206-11.3883-3.6556-1.9515-8.0638-2.8553-12.1567-1.8926-2.8527.5828-5.4403 2.0367-7.5405 3.9031-2.1217 1.8598-3.6914 4.2174-4.7666 6.7125l-.2795.6614-.2222.6811c-.1362.4519-.3226.8972-.4014 1.3687l-.2867 1.1067c-.0932.3668-.1362.7531-.2007 1.1264-.1577.7466-.1792 1.5128-.2437 2.2725-.0645 2.1741.1863 4.3746.8386 6.4964.6881 2.1152 1.7633 4.1322 3.1825 5.9332 1.4192 1.7943 3.1682 3.4053 5.2182 4.5972 2.0284 1.2115 4.3007 2.0694 6.6374 2.5213l1.4765.3143Z"/><path fill="#fff" d="M54.3622 71.1132c-2.4944-9.9018-12.0419-16.3916-20.7436-16.0314-9.9131.4125-17.5038 9.2272-17.7189 19.2403-.2508 11.9712 10.1855 21.6176 23.0374 20.7728 9.569-.6287 15.2029-7.7276 15.9914-16.3261.2365-2.5213.0716-5.1212-.5663-7.6556Z"/><path fill="#002776" d="M34.4018 93.9226c1.1325.1113 2.265.2751 3.4118.2227.5735 0 1.1469.0131 1.706-.0655.5662-.0524 1.1325-.0982 1.6773-.2292.8099-.1244 1.5769-.3733 2.351-.6025.7454-.3013 1.4981-.5763 2.1933-.9758 1.3978-.7531 2.6737-1.7158 3.756-2.8421 1.0107-1.0871 1.8564-2.2921 2.5661-3.5757.6737-1.3032 1.1826-2.6719 1.5697-4.0799.6881-2.8291.8601-5.7957.4157-8.6902-.1505-1.0216-.043-1.8926.3441-1.9778.3727-.0851.9103.7007 1.0967 1.7878.5232 3.0649.4085 6.2018-.2867 9.26-.3728 1.5194-.9104 3.0125-1.62 4.4467-.7383 1.4211-1.6629 2.7701-2.7739 3.9947-1.154 1.2705-2.5733 2.351-4.1215 3.222-.767.4584-1.6056.7859-2.4371 1.1264-.8601.2685-1.7202.5632-2.609.7204-.6165.1506-1.2472.2227-1.878.2947-.6308.0982-1.2615.1048-1.8923.1244-1.2615.0851-2.5231-.0458-3.7846-.1375l-1.7561-.2947c-2.5733-.6156-5.039-1.6372-7.2395-3.0124-2.2149-1.3556-4.1143-3.1238-5.6698-5.0885-1.5482-1.9712-2.7452-4.165-3.5265-6.4702-.7455-2.3182-1.0608-4.7217-1.025-7.0989.0573-.8251.0717-1.6502.2222-2.4623.0645-.406.1075-.8186.2007-1.2246l.2939-1.205c.1218-.5239.3369-1.0216.5232-1.5324l.2867-.7597.3513-.7334c1.2543-2.6916 3.0463-5.2063 5.4332-7.1972 2.351-1.9973 5.2468-3.5429 8.4436-4.1584 2.2722-.465 4.6591-.4978 6.9313-.0852 2.2794.3995 4.4512 1.1854 6.4367 2.2397 4.9458 2.6523 8.8594 7.1513 10.551 12.2462.3011 1.0479.2294 1.9385-.1433 2.0105-.3728.0721-.9175-.6352-1.2257-1.6044-1.7418-4.7479-5.4189-8.926-10.0206-11.3884-3.6556-1.9515-8.0638-2.8553-12.1566-1.8926-2.8528.5829-5.4404 2.0367-7.5406 3.9031-2.1216 1.8599-3.6914 4.2174-4.7666 6.7125l-.2795.6614-.2222.6811c-.1362.4584-.3226.8972-.4014 1.3687l-.2867 1.1068c-.0932.3667-.1362.7465-.2007 1.1264-.1577.7465-.1792 1.5127-.2437 2.2658-.0645 2.1742.1863 4.3746.8386 6.4964.6881 2.1153 1.7633 4.1323 3.1825 5.9332 1.4192 1.7944 3.1682 3.4054 5.2182 4.5973 2.0285 1.2115 4.3007 2.0694 6.6374 2.5213l1.4694.3143Z"/><path fill="#EE8D9C" d="M54.1224 88.9656c.086-1.5324.1935-3.0648.3297-4.5906.2007-2.207.4587-4.4074.7956-6.5947.6308-4.1519 1.4694-8.2646 2.4801-12.3444.1792-.7204.4802-1.264.6738-1.2247.1935.0393.2078.6484.0358 1.3687-.9605 4.093-1.7418 8.2253-2.2937 12.3772-.2939 2.1546-.5161 4.3222-.6738 6.4833-.1147 1.5194-.1792 3.0387-.2222 4.5645l-.0143 1.0741c-.1505 3.1892-.0932 6.4178.1362 9.6332.2294 3.2088.6021 6.4048 1.1827 9.5088.2007 1.074.43 2.142.6952 3.202.1577.688.3298 1.376.5305 2.05.2652.93.5949 1.847.9748 2.731.3799.891.8314 1.749 1.412 2.508.5806.753 1.2974 1.441 2.179 1.729.2294.046.4445.144.681.144l.3512.026c.1147 0 .2294-.019.3369-.026.4516-.065.9031-.222 1.3117-.478 1.1899-.72 2.1288-1.847 2.9173-3.006.8028-1.172 1.4622-2.429 2.0715-3.706 1.4766-3.203 2.6449-6.68 3.3044-10.171.129-.707.3297-1.257.5232-1.244.1864.007.3011.609.1864 1.343-.5949 3.595-1.7776 7.112-3.2829 10.379-.6164 1.304-1.2902 2.581-2.1145 3.799-.4085.609-.8529 1.205-1.369 1.761-.5161.557-1.0824 1.087-1.7848 1.507-.4803.294-1.0465.51-1.6486.602-.6164.092-1.2185-.007-1.792-.17-1.154-.38-1.9854-1.186-2.6449-2.011-.6523-.838-1.154-1.748-1.5697-2.672-.4158-.923-.7742-1.866-1.0752-2.822-.215-.668-.4157-1.343-.5878-2.017-.2652-1.094-.4874-2.194-.6809-3.294-.5519-3.15-.8817-6.372-1.111-9.6138-.2294-3.2417-.3297-6.5095-.2867-9.7446l.043-1.061Z"/><path fill="#002776" d="M58.0191 72.5802c-.1935-.0131-.387-.0197-.5734.0065-.2652.0328-.5161.0917-.7526.1834-.4444.1702-.8386.4584-1.1325.8775-.0502.0721-.3871.0066-.7455-.1441-.3584-.1506-.5949-.3601-.5376-.4715.3011-.6352.8172-1.2639 1.4981-1.6896.3512-.2226.7311-.406 1.1253-.5304.2724-.0917.5448-.1768.8243-.2489.0646-.0196.1291-.0393.1936-.0524 1.154.0852 2.4012.19 3.4764.5632.1935.059.3655.1376.5519.203.1075.0655.2007.1507.301.2227.5519.3864 1.025.8186 1.4909 1.2377.3154.3144.6523.6156.9534.93.387.3863.7597.812 1.0393 1.277.0573.0982-.1505.3405-.4588.5435-.3082.2096-.6164.3144-.6952.2423-.3871-.3536-.724-.7269-1.0752-1.074-.2724-.2816-.5734-.537-.896-.7596-.4444-.3144-.939-.5632-1.4335-.7335-.0932-.0262-.1792-.0589-.2724-.072-.1219-.0655-.2437-.1441-.3727-.203-.7168-.3733-1.5483-.5698-2.3726-.2751-.0502-.0262-.0932-.0327-.1362-.0327Z"/><path fill="#F8E9DD" d="M99.457 91.9057c-2.4514-.799-4.824-1.2771-6.6231-1.2771-5.7558 0-11.784 3.2941-11.784 9.0046 0 2.5738 1.2472 5.1738 3.3689 7.0268 3.5051-1.519 8.9527-3.595 12.128-3.595 8.1782 0 13.5182 17.092 27.5462 17.092 1.261 0 2.473-.177 3.627-.511l7.096 15.187c.86.177 2.057-.622 2.946-.95 6.444-2.377 16.837-12.77 19.575-21.25-17.618-32.8885-25.044-68.4615-64.453-68.4615-3.2972 0-5.4189.2489-8.5655.7073-4.3724 12.7112 15.2532 5.8088 28.0265 17.5704-.882-.1179-1.749-.1768-2.595-.1768-8.895 0-15.7048 11.4342-15.7048 18.8408-.0143 4.6038 2.3511 8.4087 5.4118 10.7925Z"/><path fill="#002776" d="M124.49 55.8086c-.573-.5762-1.197-1.1067-1.792-1.6568-.43-.406-.91-.7531-1.369-1.1264-.473-.3602-.91-.7597-1.405-1.0871-.924-.6418-1.828-1.3163-2.81-1.8795-.487-.2881-.96-.6025-1.462-.871l-1.512-.7924c-.359-.1899-.567-.4715-.48-.6287.086-.1571.451-.1375.824.0459l1.57.7793c.523.2619 1.01.5763 1.519.8579 1.025.5566 1.971 1.2246 2.939 1.8598.509.3275.968.7073 1.448 1.0609.473.3668.967.7073 1.412 1.1002.631.5436 1.297 1.0609 1.914 1.6241l.43.3929c2.437 2.4755 4.745 5.1409 6.781 7.839l1.039 1.4145c.215.3143.423.6287.616.9496 1.126 1.7354 2.201 3.497 3.226 5.2848.745 1.2836 1.462 2.5737 2.179 3.8704.874 1.6175 1.763 3.3071 2.573 4.9967.165.3405.158.6745-.021.7466-.18.072-.452-.131-.638-.4715-.882-1.6569-1.778-3.3334-2.645-4.9509-.71-1.2836-1.427-2.5672-2.208-3.8245-1.054-1.7616-2.193-3.4774-3.383-5.1605-.208-.2947-.423-.5894-.645-.8775l-1.004-1.4277c-1.942-2.6981-4.164-5.3765-6.73-7.6751l-.366-.393Z"/><path fill="#EE8D9C" d="M103.032 56.359c.653.2423 1.284.5436 1.921.8121.452.2161.911.4256 1.355.6483.437.2357.882.465 1.312.7138 1.641.9365 3.154 2.0498 4.523 3.2875.243.2161.322.4977.186.6221-.136.1245-.444.059-.688-.144-1.369-1.1788-2.889-2.2135-4.516-3.0714l-1.283-.6418c-.437-.203-.881-.3864-1.319-.5829-.63-.2423-1.254-.4977-1.906-.7007l-.459-.144c-2.6449-1.0478-5.5407-1.6634-8.3505-2.2266l-1.4622-.3013-.939-.2423c-1.7203-.4453-3.4692-.8972-5.1035-1.742-.3011-.1375-.5663-.3405-.8458-.5108-.2652-.1964-.5233-.406-.767-.6286-.215-.2489-.4659-.4716-.6236-.7597-.086-.1375-.1791-.2751-.258-.4126l-.1864-.4453c-.2867-.7466-.3727-1.5521-.2938-2.3314l.0501-.5828.1219-.5698c.0717-.3798.1864-.7531.3082-1.1132.1004-.2947.3226-.4912.5089-.4323.1864.059.2652.3209.1864.6091-.1004.3536-.1935.7072-.2509 1.0674l-.1003.537-.0359.537c-.0502.3602.0072.7073.0143 1.0544.0144.1702.0717.334.1004.5042.0287.1703.0788.334.1505.4846.3799 1.0151 1.2616 1.8075 2.3511 2.3183 1.498.7466 3.2327 1.1199 4.9529 1.4866l.9175.1768 1.4622.334c2.8027.6352 5.7128 1.3229 8.5295 2.2069l.437.1834ZM115.996 117.446c1.527.897 3.204 1.572 4.967 1.925 1.083.249 2.208.315 3.326.334.552-.006 1.111-.045 1.656-.124.595-.092.918-.138 2.029-.452l.609 1.31c1.978 4.296 3.949 8.598 5.928 12.894.351.76.48 1.428.301 1.5-.179.072-.61-.478-.968-1.238-2.043-4.296-4.086-8.598-6.128-12.901l-.266-.543c-.114.032-.086.032-.466.118-.293.065-.587.117-.881.163-.595.092-1.19.144-1.792.157-1.19-.006-2.387-.065-3.555-.314-1.893-.36-3.706-1.048-5.341-1.965-.387-.216-.774-.425-1.132-.668-3.261-2.167-5.849-5.003-8.415-7.734-1.283-1.368-2.573-2.724-3.978-3.916-1.398-1.172-2.9964-2.213-4.7454-2.41-1.197-.118-2.5087.144-3.7631.446-.8243.189-1.6486.412-2.4586.668-1.1182.347-2.222.733-3.3187 1.146l-1.6343.641-.8099.334-.6236.262-.1721.072c-.0286.027-.0501.007-.0716-.019l-.0646-.059-.258-.236-.258-.236-.1649-.163c-.1004-.105-.2079-.21-.3082-.321-.2007-.217-.3871-.446-.5663-.681-.3584-.465-.6738-.957-.939-1.467-.5376-1.022-.9031-2.129-1.0393-3.262-.1935-1.6238.086-3.3134.8888-4.7934.7741-1.4931 2.0858-2.6981 3.5553-3.5953 1.8493-1.1198 4.0426-1.7813 6.2862-1.9843 2.265-.2423 4.5301.2161 6.6302.799.8602.2423 1.4694.609 1.4049.7727-.0645.1703-.7741.0786-1.6127-.144-2.0859-.5436-4.2362-.9562-6.3579-.7073-2.1217.1964-4.2004.8317-5.9207 1.886-1.369.8383-2.5661 1.9516-3.2613 3.3072-.7168 1.3425-.9677 2.8814-.767 4.3814.1362 1.041.4874 2.056.9963 2.999.2581.472.5591.917.896 1.343.1649.216.3441.419.5304.615.0932.105.1936.197.2867.295l.1291.131.0645.052c.043.033.0788.092.1218.046l.2079-.092.8171-.347 1.6486-.674c1.1039-.439 2.2292-.852 3.3689-1.225.7957-.268 1.6128-.504 2.4371-.72 1.3404-.301 2.7166-.596 4.2219-.446 1.0608.125 2.0428.511 2.9175.996.874.491 1.663 1.074 2.394 1.703 1.462 1.257 2.752 2.639 4.043 4.014 2.566 2.731 5.16 5.501 8.35 7.485.33.229.681.432 1.025.642ZM133.099 87.3479c-1.77-.8186-4.021-.9037-5.734.0066-1.247.6352-2.122 1.7812-2.38 3.0779-.136.6418-.143 1.3294-.028 1.9712.114.6418.43 1.2115.917 1.2312.574.0523 1.19-.1703 1.591-.596.409-.4322.667-1.0216.81-1.6372.287-1.2377.122-2.5737-.222-3.831-.372-1.2508-.982-2.4689-1.892-3.4447-.459-.478-.996-.8906-1.599-1.1788-.609-.2881-1.283-.3929-1.956-.3863-.961.0392-1.756.2423-1.842.072-.086-.1441.652-.668 1.799-.7335.802-.0131 1.62.1179 2.344.4453.716.334 1.326.8121 1.849 1.3425 1.025 1.0806 1.684 2.3903 2.093 3.7394.387 1.3556.566 2.7832.251 4.2109-.165.7007-.459 1.4211-1.047 2.0104-.286.2947-.674.5305-1.089.668-.208.0786-.43.1114-.645.1376-.208.0196-.438.0392-.696-.0066-.537-.0851-.974-.4519-1.197-.8251-.229-.3733-.344-.7597-.415-1.1395-.129-.7531-.115-1.5062.028-2.2594.287-1.4996 1.333-2.9011 2.803-3.6673 2.064-1.1067 4.652-1.0347 6.738-.1244.494.2095.967.478 1.404.7924.954.7138 1.706 1.6896 2.079 2.7767.38 1.0936.373 2.2593.129 3.3333-.236 1.0806-.688 2.1087-1.269 3.0583-.58.9496-1.304 1.8271-2.157 2.5868-.846.7662-1.806 1.4274-2.874 1.9384-1.075.491-2.244.812-3.441.923-.301.013-.602.046-.896.046l-.874-.032c-.581-.027-1.162-.027-1.735-.125-1.154-.124-2.294-.38-3.39-.74-1.534-.491-2.925-1.3293-4.122-2.3313-.351-.3602-.745-.6876-1.053-1.074-.294-.3929-.646-.7662-.896-1.1788-1.47-2.2593-2.237-4.8068-2.574-7.3477-.337-2.5475-.365-5.1081-.193-7.6621.136-1.8337.416-3.687 1.161-5.4552.394-.871.91-1.7158 1.641-2.4296.746-.7007 1.714-1.1984 2.731-1.4603.323-.059.645-.1507.968-.1769l.982-.0589c.645-.0066 1.276.0262 1.914.0655 1.268.0851 2.537.2226 3.799.3929 2.523.3471 5.046.7793 7.512 1.4145 1.01.2489 1.734.6877 1.655.8448-.078.1572-.86.0197-1.849-.2095-2.43-.5829-4.946-1.002-7.447-1.3294-1.255-.1637-2.509-.3013-3.749-.3799-1.247-.072-2.487-.144-3.598.1638-.889.2357-1.699.6614-2.351 1.2704-.631.6287-1.097 1.3884-1.455 2.1939-.681 1.6437-.954 3.4381-1.061 5.2324-.151 2.5017-.086 5.0361.279 7.505.359 2.4689 1.161 4.8919 2.566 6.9679.244.3667.552.6876.825 1.0281.279.3406.638.6156.946.93 1.082.9233 2.337 1.7027 3.756 2.1674 1.992.701 4.272.917 6.422.845 1.061-.092 2.107-.373 3.082-.812.961-.4584 1.842-1.0609 2.624-1.7682 1.562-1.4015 2.695-3.2548 3.118-5.1866.2-.9693.179-1.9581-.151-2.8553-.337-.8907-.975-1.6896-1.799-2.2594-.351-.2815-.731-.5042-1.14-.6876Z"/><path fill="#EE8D9C" d="M94.5937 81.0346c0 .9561.0431 1.9188.2581 2.8552.2867 1.3556.7956 2.672 1.5124 3.8966 1.3547 2.3052 3.4477 4.2894 5.9998 5.5075.458.1965.767.4912.695.6549-.072.1637-.523.1375-1.018-.0655-2.738-1.2508-4.9959-3.3071-6.4939-5.7433-.7813-1.2639-1.3476-2.6457-1.6845-4.0668-.258-.9954-.344-2.0236-.387-3.0452l.0071-.7203c.1936-2.1415.7885-4.2305 1.5984-6.2279.8243-1.9909 1.878-3.8966 3.1682-5.632.4444-.6025.9247-1.1788 1.4407-1.742.351-.3471.695-.7007 1.075-1.0216 2.014-1.8075 4.552-3.294 7.44-3.687 1.04-.144 2.079-.1178 3.083-.0327 1.017.0851 2.014.2423 3.003.4453 2.466.4977 4.917 1.3098 7.254 2.2528.473.1899.781.4781.709.6352-.079.1638-.509.1441-.989-.0327-2.344-.8644-4.759-1.6569-7.16-2.1415-.961-.1964-1.921-.3405-2.896-.4191-.975-.0786-1.943-.0917-2.882.0589-2.645.393-4.981 1.8403-6.831 3.615-.329.3078-.638.6418-.939.9758-.501.5304-.9745 1.0805-1.4189 1.6568-1.2615 1.6372-2.3224 3.4643-3.118 5.3897-.7813 1.9253-1.3117 3.962-1.3834 5.9855l-.043.6484Z"/><path fill="#EE8D9C" d="M102.223 91.0607c.48 1.2835 1.182 2.482 1.949 3.6411 1.154 1.6372 2.602 3.1238 4.323 4.2698 1.627 1.0874 3.505 1.8534 5.49 2.1214 1.978.262 4.043.027 6.035-.379.71-.144 1.312-.144 1.362.026.05.17-.473.458-1.204.615-2.05.446-4.186.721-6.343.465-2.144-.262-4.186-1.074-5.935-2.2132-1.821-1.1853-3.348-2.7046-4.581-4.3942-.824-1.205-1.598-2.4492-2.15-3.7852-.15-.3078-.272-.6221-.38-.943-.509-1.4211-.767-2.9208-.8958-4.4205l-.0502-1.1329c.0072-.3733.043-.7531.0645-1.1264l.0717-1.1264.2078-1.1133c.559-2.9666 1.857-5.7695 3.598-8.2318.28-.4388.645-.8317.961-1.2508l.494-.6156.538-.5828c.473-.4978.953-.9889 1.484-1.4408 1.39-1.2835 2.953-2.4165 4.644-3.3595 1.699-.9234 3.527-1.7485 5.62-1.9057 1.477-.0589 2.903.2161 4.265.5894 1.369.3798 2.673.9037 3.935 1.4997 3.139 1.4865 6.114 3.4512 8.709 5.7367.523.4715.803.9561.666 1.074-.143.1244-.645-.1506-1.161-.5959-2.594-2.1873-5.533-4.1127-8.594-5.5665-1.226-.5698-2.487-1.0806-3.799-1.4342-1.304-.3536-2.666-.5959-3.985-.5239-1.814.1506-3.584.9496-5.175 1.8664-1.606.9365-3.09 2.0629-4.401 3.3268-.481.4257-.903.9037-1.334 1.3752l-.53.5567-.48.5894c-.316.3994-.667.7727-.946 1.1984-1.706 2.3445-2.982 5.0229-3.52 7.852l-.193 1.0609-.065 1.074c-.014.3602-.057.7138-.05 1.074l.065 1.074c.15 1.4211.43 2.8422.967 4.1781.093.3013.194.596.323.8776Z"/><path fill="#002776" d="M83.3557 90.5959c1.1325.1114 2.2651.2751 3.4119.2227.5734 0 1.1468.0131 1.7059-.0655.5663-.0524 1.1326-.0982 1.6773-.2292.81-.1245 1.5769-.3733 2.3511-.6025.7454-.3012 1.498-.5763 2.1933-.9758 1.3977-.7531 2.6736-1.7158 3.7559-2.8422 1.0107-1.0871 1.8569-2.292 2.5589-3.5756.674-1.3032 1.183-2.6719 1.57-4.0799.688-2.8291.86-5.7957.416-8.6902-.151-1.0216-.043-1.8926.344-1.9778.372-.0851.91.7007 1.096 1.7878.524 3.0649.409 6.2018-.286 9.26-.373 1.5194-.911 3.0125-1.62 4.4467-.739 1.421-1.663 2.7701-2.7743 3.9947-1.154 1.2705-2.5733 2.3511-4.1215 3.222-.767.4585-1.6056.7859-2.4371 1.1264-.8601.2751-1.7203.5632-2.6091.7204-.6164.1506-1.2472.2227-1.8779.2947-.6308.0982-1.2616.1048-1.8923.1244-1.2616.0851-2.5231-.0458-3.7846-.1375l-1.7561-.2947c-2.5733-.6156-5.039-1.6372-7.2395-3.0125-2.2149-1.3556-4.1144-3.1237-5.6698-5.0884-1.5482-1.9711-2.7453-4.165-3.5265-6.4702-.7455-2.3182-1.0609-4.7216-1.025-7.0989.0573-.8251.0716-1.6502.2222-2.4623.0645-.406.1075-.8186.2007-1.2246l.2938-1.2115c.1219-.5239.3369-1.0217.5233-1.5325l.2867-.7596.3512-.7335c1.2544-2.6915 3.0464-5.2063 5.4332-7.1971 2.3582-1.9974 5.2469-3.5429 8.4437-4.1585 2.2722-.465 4.6591-.4977 6.9313-.0851 2.2793.3994 4.4512 1.1853 6.4367 2.2397 4.9458 2.6522 8.8589 7.1512 10.5509 12.2462.301 1.0478.229 1.9384-.143 2.0105-.373.072-.918-.6353-1.226-1.6045-1.742-4.7479-5.4188-8.926-10.0205-11.3883-3.6556-1.9516-8.0638-2.8553-12.1567-1.8926-2.8528.5828-5.4403 2.0367-7.5405 3.9031-2.1217 1.8598-3.6914 4.2174-4.7666 6.7125l-.2795.6614-.2222.6811c-.1362.4518-.3226.8972-.4014 1.3687l-.2867 1.1067c-.0932.3667-.1362.7531-.2007 1.1264-.1577.7466-.1792 1.5128-.2437 2.2724-.0646 2.1742.1863 4.3746.8386 6.4964.6881 2.1153 1.7633 4.1323 3.1825 5.9332 1.4192 1.7944 3.1682 3.4054 5.2182 4.5973 2.0284 1.2115 4.3006 2.0694 6.6374 2.5213l1.4765.3143Z"/><path fill="#002776" d="M84.788 84.3486c.0287-.2751.0431-.5436.0431-.8121 0-3.1041-1.8135-5.7563-3.4119-5.7563-1.62 0-2.2794 2.7504-2.2794 4.1519 0 2.6522 2.0715 5.7826 3.7273 5.7826.896 0 1.6701-.93 1.9209-3.3661Z"/><path fill="#002776" d="M80.8096 85.4685c.215.3667.4444.7269.7383 1.0281.3942.4453.939.8055 1.369.799.3943.0131.7813-.4126 1.0035-.93.2294-.5173.3728-1.0936.4659-1.6765.0287-.2095.2151-.3601.4086-.3405.1935.0131.3297.203.3082.4257-.0717.6221-.1863 1.2508-.4301 1.8729-.129.3078-.2938.6222-.559.9103-.2581.2816-.681.5436-1.1612.5632-.4803.0197-.9175-.131-1.2616-.3209-.344-.1964-.6379-.4322-.8959-.6876-.3728-.3536-.6738-.74-.9534-1.1395l-.1935-.2816c-.4444-.9037-.7885-1.8533-.939-2.8487-.1577-1.002-.0573-2.017.1936-2.9601.1003-.3274.2007-.6614.3584-.9823.1146-.203.2365-.406.3942-.6025.2078-.2685.4659-.537.8314-.7203.3513-.1899.8244-.2816 1.2186-.1965.8171.1506 1.3403.6352 1.7776 1.1002.5949.7007 1.0035 1.4866 1.2902 2.2986.3512 1.0151.5161 2.1218.4014 3.2024-.0215.2226-.1935.3798-.3799.3602-.1935-.0197-.344-.19-.3369-.393.0287-1.0019-.129-2.0235-.4516-2.9535-.258-.74-.6451-1.4538-1.1755-2.0235-.3655-.3864-.8386-.7139-1.2615-.7532-.4086-.0524-.7526.1965-1.025.6222-.0932.1441-.172.3078-.2437.4715-.1362.2554-.2366.5435-.3369.8317-.2581.8382-.3799 1.7223-.2437 2.5802.129.871.4802 1.7354.9676 2.4886l.1219.2554ZM41.033 88.494c1.2879-2.1809.6183-6.3883-.8884-7.3354-.7109-.4469-1.602-.1725-2.5629 1.3639-1.6375 2.618-.7223 6.8252.6629 7.6959.7109.4469 1.6288.143 2.6661-1.5154.0347-.0555.0798-.1276.1223-.209Z"/><path fill="#002776" d="M37.3572 87.2415c.0366.4016.1244.789.2408 1.1713.1703.5398.437 1.1015.785 1.3975.158.1535.3221.2025.5112.1978.1866-.0141.4026-.1024.603-.2468.4069-.2852.7495-.7111 1.0522-1.1545.1067-.157.3297-.2022.4972-.1047.1675.0976.2205.3241.113.4961-.3087.4936-.6487.983-1.1536 1.3842-.2568.1941-.5665.378-.9787.428-.4122.0499-.8817-.1062-1.1811-.3717-.6589-.5301-.9238-1.1757-1.1809-1.7932-.1573-.4388-.2954-.8811-.3797-1.3282-.0192-.1048-.0479-.2078-.067-.3125-.062-.9431-.0137-1.8863.1838-2.7976.1844-.904.5702-1.8051 1.1158-2.5285.1943-.2565.4068-.5015.6783-.7326.1839-.1316.3895-.2574.6403-.347.3253-.1277.774-.1548 1.1715-.0054.1909.0737.374.1734.5086.2966.1571.1142.2821.2392.3845.3731.435.5362.6574 1.1009.8329 1.6594.2363.8131.3564 1.6227.3758 2.4308.0238 1.004-.1129 2.0617-.5881 2.9838-.1023.1907-.3166.2491-.4841.1515-.1675-.0975-.237-.3112-.1616-.4724.3407-.829.4653-1.7861.4467-2.7173-.0202-.739-.1342-1.4907-.3827-2.2032-.1702-.4857-.4099-.9686-.7242-1.3053-.0764-.0943-.158-.1534-.243-.2068-.0808-.074-.1615-.0938-.2387-.1192-.1493-.032-.2916-.021-.4599.0586-.1197.0561-.2316.1403-.3418.2488-.1943.1483-.3817.3396-.5482.5517-1.0201 1.1978-1.3621 2.9763-1.043 4.6451.0009.0932.0113.1848.0157.2726Z"/><path fill="#EE8D9C" d="M127.789 135.999c-.552-.052-1.118-.059-1.663-.157l-1.642-.256c-.401-.059-.759-.17-1.189-.262l-1.957-.451c-.065-.02-.194-.033-.208-.066l.193-.151.395-.294.774-.583 1.075-.799 6.917-5.147c.408-.308.839-.433.96-.295.122.137-.1.491-.501.805l-6.838 5.311-.71.551-.129.104-.057.053c-.008.006-.029.019-.022.026l.043.006.33.059c.351.066.731.177 1.104.217l1.584.203c.53.072 1.061.058 1.591.091l.745.026c2.23.079 4.495-.183 6.645-.785 2.15-.603 4.179-1.533 6.014-2.659.315-.197.638-.387.946-.596l.91-.642c.409-.255.789-.557 1.176-.845 2.107-1.598 3.992-3.458 5.662-5.468 1.212-1.441 2.308-2.96 3.312-4.532 1.254-1.958 2.415-4.06 3.412-6.182.2-.432.494-.72.674-.668.179.059.186.465-.008.917-.946 2.194-2.121 4.329-3.39 6.32-1.018 1.591-2.122 3.13-3.326 4.623-1.67 2.069-3.541 4.028-5.67 5.743-.372.302-.738.616-1.132.891l-.968.661c-.33.21-.674.406-1.003.609-1.936 1.14-4.064 2.076-6.322 2.705-2.258.635-4.624.95-6.982.969l-.745-.052Z"/></svg>