<svg xmlns="http://www.w3.org/2000/svg" width="203" height="140" fill="none"><path fill="#005AA4" d="M120.313 38.0812c9.233-8.6116 22.758-13.3464 33.79-14.833 28.212-3.7983 44.161 17.4526 48.053 42.8488 3.182 20.7531-2.552 53.052-18.615 55.887-19.217 3.399-41.007-44.2498-48.096-83.392"/><path fill="#005AA4" d="M39.6456 79.7512C14.128 74.9051.000168 56.647.000168 41.0806c0-17.9241 18.005632-32.1284 39.079132-32.1284 4.4799 0 9.1032.64178 13.7193 2.0301C66.1595 4.30256 81.4055 0 95.6122 0c28.6718 0 48.1108 17.983 44.6338 46.4571 4.523 6.6929 8.208 17.983 8.208 26.2214 0 10.4453-4.602 19.2403-16.422 23.5756L39.6456 79.7512Z"/><path fill="#F8E9DD" d="M124.843 68.8475c-.574-1.9843-.99-4.0603-.99-6.1362 0-4.3288 2.28-12.0301 5.986-12.0301 4.071 0 6.587 9.5022 6.587 15.0098 0 5.8284-1.72 11.9908-5.462 15.7171"/><path fill="#EE8D9C" d="M134.807 134.827s-6.165 1.368-12.329-.217l11.741-9.508.588 9.725Z"/><path fill="#F8E9DD" d="M110.479 53.3792c-15.9197-6.8238-42.9353-4.7413-56.6188-31.6306-15.3463 8.592-23.0375 20.0851-23.0375 38.8409 1.3619 8.7753 7.5119 12.4099 10.121 21.0216 2.5805 1.1329 5.6985 1.4276 8.8667 1.4276 3.7201 0 5.9565-.3405 11.3754-.3405 3.1969 0 6.3722.0196 9.5476.0196 11.4614 0 49.6446.1114 49.6446-10.5959 0-2.6195-1.233-6.0773-4.172-10.668-1.656-2.5999-2.731-6.7845-5.727-8.0747Z"/><path fill="#F8E9DD" d="M122.42 108.775c0 13.393-19.339 31.225-39.9394 31.225-29.4169 0-40.6274-22.593-49.9958-45.9594l22.5501-20.8972s4.229-4.833 11.103 2.3314c6.874 7.1578 37.3301 2.6653 37.2801 2.888-.05.2226 11.748 15.5533 11.748 15.5533l7.254 14.8589Z"/><path fill="#002776" d="M73.5579 42.9536c-.4516.0197-.9031.0459-1.3475.0983-.6523.0655-1.2974.1571-1.9425.2685-1.2186.203-2.4371.4715-3.6341.7924-.215.0589-.4301-.0393-.4946-.2096-.0645-.1702.0645-.3536.2796-.4256 1.2113-.3733 2.437-.7073 3.6842-.9758.6451-.1441 1.3046-.2685 1.964-.3668.4659-.072.9247-.144 1.3906-.203l.3297-.0393c1.9783-.0458 3.9996 0 5.9349.2751.3369.0458.6666.0982 1.0035.1637.215.0524.4229.1048.6308.1637 1.1612.3013 2.2865.6811 3.3904 1.1002.7884.3144 1.5769.6222 2.3438.9693.9605.4256 1.9353.9037 2.86 1.4341.1864.1048.258.3144.1577.465-.1004.1506-.3297.1965-.5233.1048-.9461-.465-1.9138-.9234-2.8528-1.3425-.7526-.3406-1.5195-.6353-2.308-.9103-1.0895-.3733-2.2077-.668-3.3402-.8841-.2007-.0393-.4014-.0655-.6021-.0982-.3154-.0721-.6379-.1375-.9533-.1899-1.8278-.334-3.7774-.4454-5.6697-.1965l-.3011.0065ZM35.132 48.546l1.2185-.2554c.5877-.1179 1.1755-.2161 1.7704-.3144 1.1254-.1506 2.2507-.275 3.3832-.3078.2007-.0065.3656.131.3799.3144.0072.1768-.1433.334-.3369.3471-1.1038.072-2.1933.2554-3.2756.4649-.5591.1245-1.1182.2423-1.6701.3864l-1.1469.3405-.2652.0983c-1.6414.3536-3.2327 1.0019-4.6304 1.7943-.2509.1245-.4874.2751-.7168.4257l-.4802.2554c-.4444.2292-.8243.5305-1.2401.799-.3942.2881-.7526.6156-1.1253.9299l-.7025.7597c-.2437.2488-.4014.5501-.6021.8251-.473.7007-.8242 1.4931-1.0895 2.2986-.0573.1638-.258.262-.4444.2292-.1863-.0327-.301-.203-.2508-.3863.2007-.8907.5877-1.7682 1.0966-2.5279.2151-.2947.3943-.6221.6451-.8906l.7312-.8382c.387-.3471.7454-.7204 1.1468-1.0479.4157-.3077.81-.6679 1.2544-.943l.4587-.3143c.2581-.1506.5161-.3013.7885-.4257 1.5267-.7727 3.1897-1.3752 4.8383-1.945l.2652-.072Z"/><path fill="#fff" d="M103.32 67.7864c-2.487-9.9017-12.0422-16.3916-20.7439-16.0314-9.9131.4126-17.5038 9.2272-17.7188 19.2403-.2509 11.9712 10.1854 21.6176 23.0373 20.7728 9.569-.6287 15.2034-7.7276 15.9914-16.3261.237-2.5213.072-5.1212-.566-7.6556Z"/><path fill="#002776" d="M83.3596 90.596c1.1325.1114 2.2651.2751 3.4119.2227.5734 0 1.1468.0131 1.7059-.0655.5663-.0524 1.1326-.0982 1.6773-.2292.81-.1244 1.5769-.3733 2.3511-.6025.7454-.3012 1.498-.5763 2.1933-.9758 1.3977-.7531 2.6736-1.7157 3.7559-2.8421 1.0107-1.0871 1.857-2.2921 2.559-3.5757.674-1.3032 1.183-2.6719 1.57-4.0799.688-2.8291.86-5.7956.415-8.6902-.15-1.0216-.043-1.8926.344-1.9777.373-.0852.911.7007 1.097 1.7878.523 3.0648.409 6.2017-.287 9.26-.372 1.5193-.91 3.0124-1.619 4.4466-.739 1.4211-1.663 2.7701-2.7744 3.9947-1.154 1.2705-2.5733 2.3511-4.1215 3.2221-.767.4584-1.6056.7858-2.4371 1.1264-.8601.275-1.7202.5631-2.6091.7203-.6164.1506-1.2472.2227-1.8779.2947-.6308.0982-1.2616.1048-1.8923.1244-1.2616.0852-2.5231-.0458-3.7846-.1375l-1.7561-.2947c-2.5733-.6156-5.039-1.6372-7.2395-3.0124-2.2149-1.3556-4.1144-3.1238-5.6698-5.0884-1.5482-1.9712-2.7453-4.1651-3.5265-6.4702-.7455-2.3183-1.0609-4.7217-1.025-7.0989.0573-.8252.0716-1.6503.2222-2.4624.0645-.406.1075-.8186.2007-1.2246l.2938-1.2115c.1219-.5239.3369-1.0216.5233-1.5324l.2867-.7597.3512-.7335c1.2544-2.6915 3.0464-5.2063 5.4332-7.1971 2.3583-1.9974 5.2469-3.5429 8.4437-4.1585 2.2722-.4649 4.6591-.4977 6.9313-.0851 2.2793.3995 4.4512 1.1853 6.4367 2.2397 4.9458 2.6522 8.859 7.1513 10.551 12.2462.301 1.0478.229 1.9385-.143 2.0105-.373.072-.918-.6352-1.226-1.6045-1.742-4.7478-5.4189-8.926-10.0206-11.3883-3.6556-1.9515-8.0638-2.8553-12.1567-1.8926-2.8527.5828-5.4403 2.0367-7.5405 3.9031-2.1217 1.8598-3.6914 4.2174-4.7666 6.7125l-.2795.6614-.2222.6811c-.1362.4519-.3226.8972-.4014 1.3687l-.2867 1.1067c-.0932.3668-.1362.7531-.2007 1.1264-.1577.7466-.1792 1.5128-.2437 2.2725-.0645 2.1741.1863 4.3746.8386 6.4964.6881 2.1152 1.7633 4.1322 3.1825 5.9332 1.4192 1.7943 3.1682 3.4053 5.2182 4.5972 2.0284 1.2115 4.3007 2.0694 6.6374 2.5213l1.4765.3143Z"/><path fill="#fff" d="M54.3622 71.1133c-2.4944-9.9018-12.0419-16.3917-20.7436-16.0315-9.9131.4126-17.5038 9.2273-17.7189 19.2404-.2508 11.9712 10.1855 21.6175 23.0374 20.7727 9.569-.6286 15.2029-7.7275 15.9914-16.3261.2365-2.5213.0716-5.1211-.5663-7.6555Z"/><path fill="#002776" d="M34.4018 93.9226c1.1325.1113 2.265.2751 3.4118.2227.5735 0 1.1469.0131 1.706-.0655.5662-.0524 1.1325-.0982 1.6773-.2292.8099-.1244 1.5769-.3733 2.351-.6025.7454-.3013 1.4981-.5763 2.1933-.9758 1.3978-.7531 2.6737-1.7158 3.756-2.8421 1.0107-1.0871 1.8564-2.2921 2.5661-3.5757.6737-1.3032 1.1826-2.6719 1.5697-4.0799.6881-2.8291.8601-5.7957.4157-8.6902-.1505-1.0216-.043-1.8926.3441-1.9778.3727-.0851.9103.7007 1.0967 1.7878.5232 3.0649.4085 6.2018-.2867 9.26-.3728 1.5194-.9104 3.0125-1.62 4.4467-.7383 1.4211-1.6629 2.7701-2.7739 3.9947-1.154 1.2705-2.5733 2.351-4.1215 3.222-.767.4584-1.6056.7859-2.4371 1.1264-.8601.2685-1.7202.5632-2.609.7204-.6165.1506-1.2472.2227-1.878.2947-.6308.0982-1.2615.1048-1.8923.1244-1.2615.0851-2.5231-.0458-3.7846-.1375l-1.7561-.2947c-2.5733-.6156-5.039-1.6372-7.2395-3.0124-2.2149-1.3556-4.1143-3.1238-5.6698-5.0885-1.5482-1.9712-2.7452-4.165-3.5265-6.4702-.7455-2.3182-1.0608-4.7217-1.025-7.0989.0573-.8251.0717-1.6502.2222-2.4623.0645-.406.1075-.8186.2007-1.2246l.2939-1.205c.1218-.5239.3369-1.0216.5232-1.5324l.2867-.7597.3513-.7334c1.2543-2.6916 3.0463-5.2063 5.4332-7.1972 2.351-1.9973 5.2468-3.5429 8.4436-4.1584 2.2722-.465 4.6591-.4978 6.9313-.0852 2.2794.3995 4.4512 1.1854 6.4367 2.2397 4.9458 2.6523 8.8594 7.1513 10.551 12.2462.3011 1.0479.2294 1.9385-.1433 2.0105-.3728.0721-.9175-.6352-1.2257-1.6044-1.7418-4.7479-5.4189-8.926-10.0206-11.3884-3.6556-1.9515-8.0638-2.8553-12.1566-1.8926-2.8528.5829-5.4404 2.0367-7.5406 3.9031-2.1216 1.8599-3.6914 4.2174-4.7666 6.7125l-.2795.6614-.2222.6811c-.1362.4584-.3226.8972-.4014 1.3687l-.2867 1.1068c-.0932.3667-.1362.7465-.2007 1.1264-.1577.7465-.1792 1.5127-.2437 2.2658-.0645 2.1742.1863 4.3746.8386 6.4964.6881 2.1153 1.7633 4.1323 3.1825 5.9332 1.4192 1.7944 3.1682 3.4054 5.2182 4.5973 2.0285 1.2115 4.3007 2.0694 6.6374 2.5213l1.4694.3143Z"/><path fill="#EE8D9C" d="M54.1224 88.9656c.086-1.5325.1935-3.0649.3297-4.5907.2007-2.207.4587-4.4074.7956-6.5947.6308-4.1519 1.4694-8.2645 2.4801-12.3444.1792-.7204.4802-1.264.6738-1.2247.1935.0393.2078.6484.0358 1.3687-.9605 4.093-1.7418 8.2253-2.2937 12.3772-.2939 2.1546-.5161 4.3222-.6738 6.4833-.1147 1.5194-.1792 3.0387-.2222 4.5645l-.0143 1.0741c-.1505 3.1892-.0932 6.4178.1362 9.6332.2294 3.2089.6021 6.4049 1.1827 9.5089.2007 1.074.43 2.141.6952 3.202.1577.688.3298 1.376.5305 2.05.2652.93.5949 1.847.9748 2.731.3799.891.8314 1.748 1.412 2.508.5806.753 1.2974 1.441 2.179 1.729.2294.046.4445.144.681.144l.3512.026c.1147 0 .2294-.019.3369-.026.4516-.065.9031-.223 1.3117-.478 1.1899-.72 2.1288-1.847 2.9173-3.006.8028-1.172 1.4622-2.429 2.0715-3.706 1.4766-3.203 2.6449-6.68 3.3044-10.171.129-.707.3297-1.257.5232-1.244.1864.007.3011.609.1864 1.342-.5949 3.596-1.7776 7.112-3.2829 10.38-.6164 1.304-1.2902 2.581-2.1145 3.799-.4085.609-.8529 1.205-1.369 1.761-.5161.557-1.0824 1.087-1.7848 1.506-.4803.295-1.0465.511-1.6486.603-.6164.092-1.2185-.007-1.792-.17-1.154-.38-1.9854-1.186-2.6449-2.011-.6523-.838-1.154-1.748-1.5697-2.672-.4158-.923-.7742-1.866-1.0752-2.822-.215-.668-.4157-1.343-.5878-2.017-.2652-1.094-.4874-2.194-.6809-3.294-.5519-3.15-.8817-6.372-1.111-9.6139-.2294-3.2417-.3297-6.5095-.2867-9.7446l.043-1.0609Z"/><path fill="#002776" d="M58.0191 72.5802c-.1935-.0131-.387-.0196-.5734.0066-.2652.0327-.5161.0916-.7526.1833-.4444.1703-.8386.4585-1.1325.8776-.0502.072-.3871.0065-.7455-.1441-.3584-.1506-.5949-.3602-.5376-.4715.3011-.6352.8172-1.2639 1.4981-1.6896.3512-.2227.7311-.406 1.1253-.5304.2724-.0917.5448-.1769.8243-.2489.0646-.0197.1291-.0393.1936-.0524 1.154.0851 2.4012.1899 3.4764.5632.1935.0589.3655.1375.5519.203.1075.0655.2007.1506.301.2227.5519.3863 1.025.8186 1.4909 1.2377.3154.3143.6523.6156.9534.9299.387.3864.7597.8121 1.0393 1.277.0573.0983-.1505.3406-.4588.5436-.3082.2095-.6164.3143-.6952.2423-.3871-.3536-.724-.7269-1.0752-1.074-.2724-.2816-.5734-.537-.896-.7597-.4444-.3143-.939-.5632-1.4335-.7334-.0932-.0262-.1792-.059-.2724-.0721-.1219-.0655-.2437-.144-.3727-.203-.7168-.3733-1.5483-.5697-2.3726-.275-.0502-.0262-.0932-.0328-.1362-.0328Z"/><path fill="#F8E9DD" d="M99.457 91.9056c-2.4514-.799-4.824-1.277-6.6231-1.277-5.7558 0-11.784 3.294-11.784 9.0046 0 2.5738 1.2472 5.1738 3.3689 7.0268 3.5051-1.519 8.9527-3.595 12.128-3.595 8.1782 0 13.5182 17.092 27.5462 17.092 1.261 0 2.473-.177 3.627-.511l7.096 15.187c.86.177 2.057-.622 2.946-.95 6.444-2.377 16.837-12.77 19.575-21.25-17.618-32.8885-25.044-68.4616-64.453-68.4616-3.2972 0-5.4189.2489-8.5655.7073-4.3724 12.7112 15.2532 5.8088 28.0265 17.5704-.882-.1179-1.749-.1768-2.595-.1768-8.895 0-15.7048 11.4342-15.7048 18.8409-.0143 4.6038 2.3511 8.4086 5.4118 10.7924Z"/><path fill="#002776" d="M124.49 55.8086c-.573-.5763-1.197-1.1068-1.792-1.6569-.43-.406-.91-.7531-1.369-1.1264-.473-.3601-.91-.7596-1.405-1.0871-.924-.6417-1.828-1.3163-2.81-1.8795-.487-.2881-.96-.6024-1.462-.8709l-1.512-.7925c-.359-.1899-.567-.4715-.48-.6286.086-.1572.451-.1376.824.0458l1.57.7793c.523.262 1.01.5763 1.519.8579 1.025.5566 1.971 1.2246 2.939 1.8599.509.3274.968.7072 1.448 1.0609.473.3667.967.7072 1.412 1.1002.631.5435 1.297 1.0609 1.914 1.6241l.43.3929c2.437 2.4754 4.745 5.1408 6.781 7.8389l1.039 1.4145c.215.3144.423.6287.616.9496 1.126 1.7354 2.201 3.4971 3.226 5.2849.745 1.2835 1.462 2.5737 2.179 3.8703.874 1.6176 1.763 3.3072 2.573 4.9967.165.3406.158.6746-.021.7466-.18.0721-.452-.131-.638-.4715-.882-1.6568-1.778-3.3333-2.645-4.9509-.71-1.2835-1.427-2.5671-2.208-3.8245-1.054-1.7616-2.193-3.4774-3.383-5.1604-.208-.2947-.423-.5894-.645-.8776l-1.004-1.4276c-1.942-2.6981-4.164-5.3766-6.73-7.6752l-.366-.3929Z"/><path fill="#EE8D9C" d="M103.032 56.3589c.653.2423 1.284.5435 1.921.812.452.2161.911.4257 1.355.6484.437.2357.882.4649 1.312.7138 1.641.9365 3.154 2.0498 4.523 3.2875.243.2161.322.4977.186.6221-.136.1244-.444.059-.688-.1441-1.369-1.1787-2.889-2.2135-4.516-3.0713l-1.283-.6418c-.437-.203-.881-.3864-1.319-.5829-.63-.2423-1.254-.4977-1.906-.7007l-.459-.1441c-2.6449-1.0478-5.5407-1.6634-8.3505-2.2265l-1.4622-.3013-.939-.2423c-1.7203-.4453-3.4692-.8972-5.1035-1.742-.3011-.1375-.5663-.3405-.8458-.5108-.2652-.1964-.5233-.406-.767-.6287-.215-.2488-.4659-.4715-.6236-.7596-.086-.1375-.1791-.2751-.258-.4126l-.1864-.4453c-.2867-.7466-.3727-1.5521-.2938-2.3314l.0501-.5828.1219-.5698c.0717-.3798.1864-.7531.3082-1.1133.1004-.2947.3226-.4911.5089-.4322.1864.059.2652.3209.1864.609-.1004.3537-.1935.7073-.2509 1.0675l-.1003.537-.0359.537c-.0502.3602.0072.7073.0143 1.0544.0144.1702.0717.3339.1004.5042.0287.1703.0788.334.1505.4846.3799 1.0151 1.2616 1.8075 2.3511 2.3183 1.498.7466 3.2327 1.1198 4.9529 1.4866l.9175.1768 1.4622.334c2.8027.6352 5.7128 1.3228 8.5295 2.2069l.437.1834ZM115.996 117.446c1.527.897 3.204 1.572 4.967 1.925 1.083.249 2.208.315 3.326.334.552-.006 1.111-.046 1.656-.124.595-.092.918-.138 2.029-.452l.609 1.31c1.978 4.296 3.949 8.598 5.928 12.894.351.76.48 1.428.301 1.5-.179.072-.61-.478-.968-1.238-2.043-4.296-4.086-8.598-6.128-12.901l-.266-.543c-.114.032-.086.032-.466.117-.293.066-.587.118-.881.164-.595.092-1.19.144-1.792.157-1.19-.006-2.387-.065-3.555-.314-1.893-.36-3.706-1.048-5.341-1.965-.387-.216-.774-.425-1.132-.668-3.261-2.167-5.849-5.003-8.415-7.734-1.283-1.368-2.573-2.724-3.978-3.916-1.398-1.172-2.9964-2.213-4.7454-2.41-1.197-.118-2.5087.144-3.7631.445-.8243.19-1.6486.413-2.4586.668-1.1182.348-2.222.734-3.3187 1.147l-1.6343.641-.8099.334-.6236.262-.1721.072c-.0286.026-.0501.007-.0716-.019l-.0646-.059-.258-.236-.258-.236-.1649-.164c-.1004-.104-.2079-.209-.3082-.32-.2007-.217-.3871-.446-.5663-.682-.3584-.465-.6738-.956-.939-1.466-.5376-1.022-.9031-2.129-1.0393-3.262-.1935-1.6238.086-3.3134.8888-4.7935.7741-1.4931 2.0858-2.6981 3.5553-3.5953 1.8493-1.1198 4.0426-1.7812 6.2862-1.9842 2.265-.2424 4.5301.2161 6.6302.7989.8602.2423 1.4694.6091 1.4049.7728-.0645.1702-.7741.0786-1.6127-.1441-2.0859-.5435-4.2362-.9561-6.3579-.7073-2.1217.1965-4.2004.8317-5.9207 1.8861-1.369.8382-2.5661 1.9515-3.2613 3.3071-.7168 1.3425-.9677 2.8815-.767 4.3815.1362 1.041.4874 2.056.9963 2.999.2581.472.5591.917.896 1.343.1649.216.3441.419.5304.615.0932.105.1936.197.2867.295l.1291.131.0645.052c.043.033.0788.092.1218.046l.2079-.092.8171-.347 1.6486-.674c1.1039-.439 2.2292-.852 3.3689-1.225.7957-.268 1.6128-.504 2.4371-.72 1.3404-.302 2.7166-.596 4.2219-.446 1.0608.125 2.0428.511 2.9175.996.874.491 1.663 1.074 2.394 1.703 1.462 1.257 2.752 2.639 4.043 4.014 2.566 2.731 5.16 5.501 8.35 7.485.33.229.681.432 1.025.642ZM133.099 87.3478c-1.77-.8186-4.021-.9037-5.734.0066-1.247.6352-2.122 1.7813-2.38 3.0779-.136.6418-.143 1.3294-.028 1.9712.114.6418.43 1.2115.917 1.2312.574.0524 1.19-.1703 1.591-.596.409-.4322.667-1.0216.81-1.6372.287-1.2377.122-2.5737-.222-3.831-.372-1.2508-.982-2.4689-1.892-3.4447-.459-.478-.996-.8906-1.599-1.1788-.609-.2881-1.283-.3929-1.956-.3863-.961.0393-1.756.2423-1.842.072-.086-.1441.652-.668 1.799-.7335.802-.0131 1.62.1179 2.344.4454.716.3339 1.326.812 1.849 1.3425 1.025 1.0805 1.684 2.3903 2.093 3.7393.387 1.3556.566 2.7833.251 4.2109-.165.7007-.459 1.4211-1.047 2.0105-.286.2947-.674.5304-1.089.6679-.208.0786-.43.1114-.645.1376-.208.0196-.438.0393-.696-.0066-.537-.0851-.974-.4518-1.197-.8251-.229-.3733-.344-.7597-.415-1.1395-.129-.7531-.115-1.5062.028-2.2593.287-1.4997 1.333-2.9012 2.803-3.6674 2.064-1.1067 4.652-1.0347 6.738-.1244.494.2096.967.4781 1.404.7924.954.7138 1.706 1.6896 2.079 2.7767.38 1.0936.373 2.2593.129 3.3333-.236 1.0806-.688 2.1087-1.269 3.0583-.58.9496-1.304 1.8271-2.157 2.5868-.846.7662-1.806 1.4275-2.874 1.9385-1.075.491-2.244.812-3.441.923-.301.013-.602.046-.896.046l-.874-.033c-.581-.026-1.162-.026-1.735-.124-1.154-.124-2.294-.38-3.39-.74-1.534-.491-2.925-1.3294-4.122-2.3314-.351-.3602-.745-.6876-1.053-1.074-.294-.3929-.646-.7662-.896-1.1788-1.47-2.2593-2.237-4.8068-2.574-7.3477-.337-2.5475-.365-5.1081-.193-7.6621.136-1.8337.416-3.687 1.161-5.4552.394-.8709.91-1.7157 1.641-2.4296.746-.7007 1.714-1.1984 2.731-1.4603.323-.059.645-.1507.968-.1769l.982-.0589c.645-.0065 1.276.0262 1.914.0655 1.268.0851 2.537.2226 3.799.3929 2.523.3471 5.046.7793 7.512 1.4146 1.01.2488 1.734.6876 1.655.8448-.078.1571-.86.0196-1.849-.2096-2.43-.5829-4.946-1.002-7.447-1.3294-1.255-.1637-2.509-.3013-3.749-.3798-1.247-.0721-2.487-.1441-3.598.1637-.889.2357-1.699.6614-2.351 1.2704-.631.6287-1.097 1.3884-1.455 2.1939-.681 1.6437-.954 3.4381-1.061 5.2325-.151 2.5016-.086 5.036.279 7.5049.359 2.4689 1.161 4.8919 2.566 6.9679.244.3667.552.6876.825 1.0282.279.3405.638.6155.946.9299 1.082.9234 2.337 1.7027 3.756 2.1675 1.992.701 4.272.917 6.422.845 1.061-.092 2.107-.373 3.082-.812.961-.4585 1.842-1.061 2.624-1.7683 1.562-1.4014 2.695-3.2547 3.118-5.1866.2-.9693.179-1.9581-.151-2.8553-.337-.8907-.975-1.6896-1.799-2.2593-.351-.2816-.731-.5043-1.14-.6877Z"/><path fill="#EE8D9C" d="M94.5937 81.0346c0 .9561.0431 1.9187.2581 2.8552.2867 1.3556.7956 2.6719 1.5124 3.8966 1.3547 2.3051 3.4477 4.2894 5.9998 5.5075.458.1965.767.4911.695.6549-.072.1637-.523.1375-1.018-.0655-2.738-1.2508-4.9959-3.3072-6.4939-5.7433-.7813-1.2639-1.3476-2.6457-1.6845-4.0668-.258-.9954-.344-2.0236-.387-3.0452l.0071-.7204c.1936-2.1414.7885-4.2305 1.5984-6.2279.8243-1.9908 1.878-3.8965 3.1682-5.6319.4444-.6025.9247-1.1788 1.4407-1.742.351-.3471.695-.7007 1.075-1.0216 2.014-1.8075 4.552-3.2941 7.44-3.687 1.04-.1441 2.079-.1179 3.083-.0327 1.017.0851 2.014.2423 3.003.4453 2.466.4977 4.917 1.3097 7.254 2.2528.473.1899.781.478.709.6352-.079.1637-.509.1441-.989-.0327-2.344-.8645-4.759-1.6569-7.16-2.1415-.961-.1965-1.921-.3405-2.896-.4191-.975-.0786-1.943-.0917-2.882.0589-2.645.3929-4.981 1.8402-6.831 3.615-.329.3077-.638.6417-.939.9757-.501.5305-.9745 1.0806-1.4189 1.6569-1.2615 1.6372-2.3224 3.4643-3.118 5.3896-.7813 1.9254-1.3117 3.962-1.3834 5.9856l-.043.6484Z"/><path fill="#EE8D9C" d="M102.223 91.0606c.48 1.2836 1.182 2.482 1.949 3.6412 1.154 1.6372 2.602 3.1237 4.323 4.2698 1.627 1.0874 3.505 1.8534 5.49 2.1214 1.978.262 4.043.027 6.035-.379.71-.145 1.312-.145 1.362.026.05.17-.473.458-1.204.615-2.05.446-4.186.721-6.343.465-2.144-.262-4.186-1.074-5.935-2.2132-1.821-1.1853-3.348-2.7046-4.581-4.3942-.824-1.205-1.598-2.4493-2.15-3.7852-.15-.3078-.272-.6222-.38-.943-.509-1.4211-.767-2.9208-.8958-4.4205l-.0502-1.1329c.0072-.3733.043-.7531.0645-1.1264l.0717-1.1264.2078-1.1133c.559-2.9666 1.857-5.7695 3.598-8.2318.28-.4388.645-.8317.961-1.2509l.494-.6155.538-.5829c.473-.4977.953-.9888 1.484-1.4407 1.39-1.2836 2.953-2.4165 4.644-3.3595 1.699-.9234 3.527-1.7486 5.62-1.9057 1.477-.059 2.903.2161 4.265.5893 1.369.3799 2.673.9038 3.935 1.4997 3.139 1.4866 6.114 3.4512 8.709 5.7368.523.4715.803.9561.666 1.074-.143.1244-.645-.1507-1.161-.596-2.594-2.1873-5.533-4.1126-8.594-5.5664-1.226-.5698-2.487-1.0806-3.799-1.4342-1.304-.3537-2.666-.596-3.985-.5239-1.814.1506-3.584.9495-5.175 1.8664-1.606.9364-3.09 2.0628-4.401 3.3268-.481.4256-.903.9037-1.334 1.3752l-.53.5566-.48.5894c-.316.3995-.667.7728-.946 1.1985-1.706 2.3444-2.982 5.0229-3.52 7.852l-.193 1.0609-.065 1.074c-.014.3602-.057.7138-.05 1.074l.065 1.074c.15 1.4211.43 2.8422.967 4.1781.093.3013.194.5959.323.8775Z"/><path fill="#002776" d="M83.3557 90.5959c1.1325.1114 2.2651.2751 3.4119.2227.5734 0 1.1468.0131 1.7059-.0655.5663-.0524 1.1326-.0982 1.6773-.2292.81-.1245 1.5769-.3733 2.3511-.6025.7454-.3012 1.498-.5763 2.1933-.9758 1.3977-.7531 2.6736-1.7158 3.7559-2.8422 1.0107-1.0871 1.8569-2.292 2.5589-3.5756.674-1.3032 1.183-2.6719 1.57-4.0799.688-2.8291.86-5.7957.416-8.6902-.151-1.0216-.043-1.8926.344-1.9778.372-.0851.91.7007 1.096 1.7878.524 3.0649.409 6.2018-.286 9.26-.373 1.5194-.911 3.0125-1.62 4.4467-.739 1.421-1.663 2.7701-2.7743 3.9947-1.154 1.2705-2.5733 2.3511-4.1215 3.222-.767.4585-1.6056.7859-2.4371 1.1264-.8601.2751-1.7203.5632-2.6091.7204-.6164.1506-1.2472.2227-1.8779.2947-.6308.0982-1.2616.1048-1.8923.1244-1.2616.0851-2.5231-.0458-3.7846-.1375l-1.7561-.2947c-2.5733-.6156-5.039-1.6372-7.2395-3.0125-2.2149-1.3556-4.1144-3.1237-5.6698-5.0884-1.5482-1.9711-2.7453-4.165-3.5265-6.4702-.7455-2.3182-1.0609-4.7216-1.025-7.0989.0573-.8251.0716-1.6502.2222-2.4623.0645-.406.1075-.8186.2007-1.2246l.2938-1.2115c.1219-.5239.3369-1.0217.5233-1.5325l.2867-.7596.3512-.7335c1.2544-2.6915 3.0464-5.2063 5.4332-7.1971 2.3582-1.9974 5.2469-3.5429 8.4437-4.1585 2.2722-.465 4.6591-.4977 6.9313-.0851 2.2793.3994 4.4512 1.1853 6.4367 2.2397 4.9458 2.6522 8.8589 7.1512 10.5509 12.2462.301 1.0478.229 1.9384-.143 2.0105-.373.072-.918-.6353-1.226-1.6045-1.742-4.7479-5.4188-8.926-10.0205-11.3883-3.6556-1.9516-8.0638-2.8553-12.1567-1.8926-2.8528.5828-5.4403 2.0367-7.5405 3.9031-2.1217 1.8598-3.6914 4.2174-4.7666 6.7125l-.2795.6614-.2222.6811c-.1362.4518-.3226.8972-.4014 1.3687l-.2867 1.1067c-.0932.3667-.1362.7531-.2007 1.1264-.1577.7466-.1792 1.5128-.2437 2.2724-.0646 2.1742.1863 4.3746.8386 6.4964.6881 2.1153 1.7633 4.1323 3.1825 5.9332 1.4192 1.7944 3.1682 3.4054 5.2182 4.5973 2.0284 1.2115 4.3006 2.0694 6.6374 2.5213l1.4765.3143Z"/><path fill="#EE8D9C" d="M127.789 135.999c-.552-.053-1.118-.059-1.663-.157l-1.642-.256c-.401-.059-.759-.17-1.189-.262l-1.957-.452c-.065-.019-.194-.032-.208-.065l.193-.151.395-.294.774-.583 1.075-.799 6.917-5.147c.408-.308.839-.433.96-.295.122.137-.1.491-.501.805l-6.838 5.311-.71.55-.129.105-.057.053c-.008.006-.029.019-.022.026l.043.006.33.059c.351.066.731.177 1.104.216l1.584.203c.53.073 1.061.059 1.591.092l.745.026c2.23.079 4.495-.183 6.645-.786 2.15-.602 4.179-1.532 6.014-2.658.315-.197.638-.387.946-.596l.91-.642c.409-.255.789-.557 1.176-.845 2.107-1.598 3.992-3.458 5.662-5.468 1.212-1.441 2.308-2.96 3.312-4.532 1.254-1.958 2.415-4.06 3.412-6.182.2-.432.494-.72.674-.668.179.059.186.465-.008.917-.946 2.194-2.121 4.329-3.39 6.32-1.018 1.591-2.122 3.13-3.326 4.623-1.67 2.069-3.541 4.028-5.67 5.743-.372.302-.738.616-1.132.891l-.968.661c-.33.21-.674.406-1.003.609-1.936 1.14-4.064 2.076-6.322 2.705-2.258.635-4.624.95-6.982.969l-.745-.052Z"/><path fill="#002776" d="M93.2821 119.441c.1523-.073.3046-.146.4344-.234.1773-.143.3894-.267.5565-.424.3423-.288.6314-.635.8756-1.014.0496-.066.3429-.002.6481.139.3053.14.5282.316.4866.408-.2059.522-.4733 1.034-.8205 1.495-.1594.258-.3719.456-.5661.695l-.4355.458c-.0331.044-.0641.076-.0971.119-.8354.351-1.5829.778-2.3669 1.125-.1378.063-.2736.113-.4094.164l-.2957.023c-.5198.07-1.0435.09-1.5569.124l-1.111.041c-.4579.006-.9485-.018-1.4077-.148-.0964-.029-.136-.309-.079-.635.0448-.327.1528-.581.2309-.592.4189-.001.8254-.005 1.2196-.01.3183-.006.6408-.036.9574-.105.4357-.097.8553-.247 1.2545-.426l.1977-.114c.1192-.029.2363-.045.3577-.086.6742-.155 1.3819-.428 1.822-.984.0348.018.076.001.1048-.019ZM79.1827 64.1989c.0513-.2697.0879-.5342.1102-.7998.2581-3.0711-1.3196-5.8463-2.9046-5.9796-1.6063-.135-2.4889 2.5313-2.6054 3.9178-.2205 2.6241 1.5733 5.8938 3.2151 6.0318.8885.0747 1.7334-.7808 2.1847-3.1702Z"/><path fill="#002776" d="M75.1446 64.9757c.1826.3808.38.7563.6463 1.0788.3537.4734.8638.8751 1.2907.9044.3897.0458.8089-.3432 1.0722-.8366.2705-.4928.4606-1.0511.6015-1.62.0459-.205.2432-.3385.4334-.303.1908.0291.31.2283.2701.4468-.1228.6097-.2889 1.2222-.5823 1.8175-.1535.2938-.3431.5911-.6301.8541-.2792.2572-.7203.4812-1.198.4607-.4778-.0206-.8987-.206-1.224-.4225-.3247-.2231-.5964-.4808-.8309-.755-.3401-.3809-.6064-.7882-.8502-1.2067l-.1685-.2948c-.3653-.9312-.6273-1.8994-.6936-2.8968-.0729-1.0045.1111-2.0005.4384-2.9127.1267-.3156.254-.6378.4371-.9421.1306-.1914.2682-.3821.4409-.5634.2285-.2483.5067-.4925.8843-.6435.364-.1587.8407-.2101 1.2244-.0931.7975.2171 1.2759.7401 1.6707 1.2366.5314.7428.871 1.5543 1.0876 2.3817.2637 1.0336.335 2.1424.1313 3.202-.0399.2185-.2235.3597-.4066.3247-.1902-.0355-.3253-.2165-.3013-.4168.1119-.989.0406-2.0129-.2017-2.9599-.1942-.7537-.5185-1.4922-.9969-2.1-.3302-.4128-.7719-.7761-1.1879-.8502-.4007-.0858-.7625.1318-1.068.5303-.1044.1348-.1962.2902-.2809.4463-.1562.2413-.2797.5181-.4032.7948-.3256.808-.52 1.6726-.4565 2.5328.0554.8725.3316 1.7571.7521 2.5428l.0996.2628ZM33.3771 67.3716c1.1415-2.2413.2128-6.3712-1.3423-7.2175-.7337-.3993-1.601-.0725-2.4585 1.5098-1.461 2.6961-.2886 6.8107 1.1411 7.5888.7337.3993 1.6259.0416 2.5514-1.6663.031-.0572.0712-.1314.1083-.2148Z"/><path fill="#002776" d="M29.6499 66.3559c.0615.3959.173.7746.3126 1.1464.2029.5247.5028 1.0651.8669 1.3372.1665.1424.3324.1809.5199.1646.1843-.0254.3932-.1262.583-.2818.386-.3077.6994-.751.972-1.2092.096-.1622.3146-.2208.487-.1343.1724.0864.2392.3077.1433.4847-.2755.5084-.5823 1.0145-1.0583 1.4433-.2427.2082-.5386.4096-.9446.4845-.406.0749-.8819-.051-1.1958-.2958-.6873-.485-.9908-1.1087-1.2847-1.7051-.1837-.4254-.3485-.8554-.4603-1.2934-.0256-.1027-.0605-.2031-.0861-.3058-.1207-.931-.132-1.8691.0068-2.7847.1264-.9075.4528-1.8246.949-2.5753.1767-.2662.3723-.5222.6273-.768.1743-.1418.3705-.2791.6138-.3834.315-.1466.7586-.2011 1.1626-.0774.1941.0613.3822.1489.5235.2628.1631.1035.295.2197.4051.3462.4654.5048.7216 1.051.9309 1.5939.2856.7915.4556 1.5867.5256 2.3866.0866.9939.0173 2.0509-.3965 2.9943-.0896.1953-.2987.2664-.4711.18-.1724-.0864-.2548-.294-.19-.4585.2861-.8427.3498-1.7992.2729-2.7212-.0665-.7315-.2268-1.4696-.5182-2.1607-.1995-.471-.4677-.9351-.8008-1.2495-.0817-.0889-.1664-.1423-.2542-.1901-.0848-.0684-.1662-.083-.2444-.1034-.1502-.0226-.2908-.003-.4529.0863-.1153.063-.2211.1534-.3236.2677-.1836.1589-.3576.3601-.5096.5806-.9374 1.2502-1.1653 3.0345-.7438 4.6692.0067.0924.0229.1826.0327.2693Z"/></svg>