<svg xmlns="http://www.w3.org/2000/svg" width="191" height="217" fill="none"><path fill="#F8E9DD" d="m63.3272 46.5574.6563 2.338c.3174 1.1333.6938 2.2491 1.1279 3.3429a17.904662 17.904662 0 0 0 3.5479 5.845c.0975.0686.2078.1167.3244.1415.1165.0248.2368.0258.3537.0028s.228-.0695.3265-.1366c.0984-.0671.1823-.1535.2464-.2539.3487-.4307.4717-.9639.2666-1.1895-1.2234-1.5759-2.1162-3.3825-2.625-5.3117-.3076-1.0254-.5537-2.0508-.7588-3.1172-.2051-1.0665-.2462-1.4972-.3282-2.2355V45.45c-.8457-3.0174-.9091-6.2005-.1845-9.2493.1436-.4922.2255-1.0049.4101-1.4766.1846-.4717.1231-.6768.2257-.9845.4964-1.7998 1.3013-3.4998 2.3789-5.0245.7806-1.1264 1.6968-2.1527 2.7277-3.0557a44.284714 44.284714 0 0 1 4.1017-3.3019.492359.492359 0 0 0 .144-.1615.492806.492806 0 0 0 .061-.2077l.3691-.6973c-.2328-.1863-.522-.2879-.8202-.2879-.2983 0-.5876.1016-.8204.2879l.3896-.6972a.45079.45079 0 0 0-.2153-.0547c-.0752 0-.1493.0188-.2154.0547-1.6579.9208-3.2001 2.0362-4.5939 3.3223-1.1216 1.0197-2.1636 2.1235-3.1172 3.3019-1.3502 1.6701-2.4615 3.5199-3.3019 5.4962-.1641.3487-.2871.6973-.4306 1.046-.1436.3486-.2666 1.21-.3897 1.8047a44.25466 44.25466 0 0 0 0 10.4183l.1436.5742ZM67.3258 79.0433c.0303-.5062.1129-1.008.2462-1.4972.1677-.7014.394-1.3874.6767-2.0508.555-1.302 1.294-2.5176 2.1944-3.6095.1641-.2051.0001-.6768-.4306-1.0665-.4306-.3896-.8819-.5332-1.087-.3486a18.454783 18.454783 0 0 0-2.9942 3.8761c-.4373.7411-.8145 1.5161-1.128 2.3175-.2256.5742-.4306 1.1484-.6152 1.7431l-.1436.4102c-.1906 2.5586-.0388 5.1313.4513 7.6497l.328 1.2715.3897.7588c1.2143 2.3187 2.8325 4.4022 4.7785 6.1526 1.0009.9544 2.142 1.7498 3.3838 2.3584.2461.1231.6563-.1641.9229-.6563.2667-.4922.3077-.9843.1231-1.1279a24.60261 24.60261 0 0 1-2.8711-2.2764 11.734444 11.734444 0 0 1-1.8664-2.1534c-.7334-1.0899-1.2937-2.2867-1.6611-3.548l-.1641-.6562-.3692-1.0255c-.7373-2.01-.802-4.2051-.1845-6.2551l.0204-.2665Z"/><path fill="#F8E9DD" d="M60.5791 153.386c7.2395-7.629 17.7193-12.305 17.7193-54.4297 0-5.8039-.2256-11.6078-.3896-17.2681-.9969.4019-2.0631.604-3.1379.5947-8.9827 0-15.0531-12.305-15.0531-22.3542 0-9.3519 5.7833-14.0893 11.095-14.0893 6.5627 0 13.187 6.6447 15.2583 13.6176 4.3453-6.7515 6.8157-14.5377 7.1574-22.5593 0-8.5521-3.917-15.771-13.2689-18.9498C86.4608 8.1448 102.663-1.26859 121.1-.325202 151.678 1.25395 165.234 25.536 165.234 54.1658c0 39.2738-10.788 57.1162-28.24 64.4992-2.051.882-2.051 2.051-4.287 2.728-.656 5.537.78 11.566.78 18.232-.222 8.825.891 17.634 3.302 26.127"/><path fill="#002776" d="M122.598 57.92c-.09-.3973-.138-.8028-.144-1.21-.052-.5731-.052-1.1496 0-1.7227.116-1.0297.537-2.0012 1.21-2.7892.123-.1025 0-.5742-.369-1.0459s-.759-.6973-.984-.5127c-1.145.9897-1.973 2.2952-2.379 3.753-.218.7102-.376 1.4374-.472 2.1739 0 .5127 0 1.0254-.144 1.5381v.3897c.243 1.4417.736 2.8299 1.457 4.1017.371.5691.918 1.0012 1.558 1.2305.342.098.7.1249 1.053.079.353-.0458.692-.1635.998-.3456.406-.2533.76-.5802 1.046-.9639.183-.3121.334-.6419.451-.9844.177-.48.314-.9739.41-1.4766v-1.1484c.057-.6825.057-1.3684 0-2.0509-.065-.9161-.188-1.8272-.369-2.7276-.222-1.2102-.744-2.3454-1.518-3.3019-.164-.2051-.656 0-1.086.2666-.431.2666-.698.7383-.595.9024.441.824.759 1.7085.943 2.625.167.7606.229 1.5402.185 2.3175.012.5244-.043 1.0482-.164 1.5587-.144.6152-.246.6562-.328.7382h-.124c.017.0744.017.1513 0 .2257 0 .0707-.028.1385-.078.1885-.05.05-.117.0781-.188.0781s-.139-.0281-.189-.0781c-.05-.05-.078-.1178-.078-.1885-.102-.3077 0-.2667 0-1.3741l-.102-.2461ZM159.614 57.7154c-.067-.2683-.101-.5437-.102-.8203.004-.4325.038-.8643.102-1.2921.147-.8493.402-1.6764.759-2.4609 0-.1231-.287-.4923-.738-.7794-.451-.2871-.944-.4307-1.046-.2666-.596.878-1.092 1.8205-1.477 2.8097-.2.5352-.365 1.0834-.492 1.6407-.091.4198-.16.8442-.205 1.2715v.3281c.204.984.64 1.905 1.272 2.6866.686.7597 1.6 1.2776 2.604 1.4767l1.251.2666.472-1.3741.123-.3076.226-.7588v-.5128c.062-.9902.062-1.9834 0-2.9737-.053-.7551-.177-1.5035-.37-2.2354-.259-.936-.753-1.7901-1.435-2.4815-.144-.1231-.595 0-1.005.4306-.41.4307-.677.7588-.615.8819.351.5733.633 1.186.84 1.8253.151.512.199 1.0484.144 1.5791-.094.7955-.294 1.575-.595 2.3175l-.205.4101-.123.7178v.3076l1.723-1.1074c-.861 0-1.251-.4102-1.067-1.4356l-.041-.1436ZM130.39 96.6806c.575-.3487 1.149-.9434 1.867-.9434.902 0 2.953.8613 2.953 1.7842s-1.518 1.4562-2.892 1.4562c-1.374 0-2.051-.4103-2.051-1.4562-.01-.2854.031-.5704.123-.8408Z"/><path fill="#002776" d="M132.442 97.3569c-.14.0752-.293.1239-.451.1435h-.472s-.164.1231-.123 0c.041-.123 0-.2461 0-.4102-.291-.2169-.617-.3833-.964-.4922-.513-.205-.984-.2461-1.025 0-.209.4769-.287 1.0007-.226 1.5177.112.6499.473 1.2308 1.005 1.6201.439.3052.934.5212 1.456.6362l.985.184h.225c.656-.205 1.251-.39 1.907-.6561.364-.1489.709-.3417 1.026-.5743.504-.3576.856-.8921.984-1.4971.1-.5257.013-1.0697-.246-1.5381-.133-.1983-.299-.3718-.492-.5127-.678-.4951-1.454-.8379-2.276-1.0049l-.841-.1641c-.346-.0618-.7-.0618-1.046 0-.419.0828-.817.2503-1.169.4922-.247.1728-.474.3723-.677.5948 0 0 .144.5127.431.9639.287.4512.615.7998.738.7382l.718-.3691c.108-.0618.226-.1035.348-.123.087-.0297.181-.0297.267 0 .157.0336.309.0888.451.164.41.1846.862.5948.862.7999 0 .205.184-.1436.348-.2257.164-.082.554-.164.369-.164-.108-.043-.211-.0981-.307-.1641-.205-.1231-.41-.3691-.328-.2666-.075.0892-.175.1536-.287.1846-.336.1336-.711.1336-1.046 0l-.144.1231Z"/><path fill="#7EB5D2" d="M122.29 26.6646c.509-.5036 1.098-.9194 1.743-1.2305.979-.4775 2.022-.8092 3.097-.9844.978-.2239 1.991-.2466 2.979-.0668.987.1798 1.927.5584 2.763 1.1127.246.2051.78.1026 1.231-.246.103-.0685.189-.1583.255-.2633.065-.105.106-.2227.122-.3453.016-.1225.005-.247-.032-.3649-.037-.118-.099-.2266-.181-.3186-1.043-.8323-2.245-1.4434-3.532-1.796s-2.632-.4393-3.954-.2548c-1.344.0975-2.665.4019-3.917.9023-.924.3508-1.8.8195-2.604 1.3946-.216.1253-.416.2769-.595.4512-.808.8581-1.381 1.9109-1.661 3.0558-.108.3519-.157.7192-.144 1.0869-.052.3742-.052.7538 0 1.128.123.7222.511 1.3727 1.087 1.8252.634.3534 1.355.5216 2.08.4854.726-.0363 1.426-.2755 2.022-.6904 1.026-.6106 1.858-1.4995 2.399-2.5636.204-.4137.342-.8565.41-1.3126.021-.2456.021-.4926 0-.7382v-.5538c-.096-.4802-.227-.953-.389-1.4151-.222-.7577-.607-1.4576-1.128-2.0508-.579-.6001-1.333-1.0021-2.154-1.1485-1.333-.1864-2.693.0129-3.917.5742-1.53.6878-2.981 1.5406-4.327 2.5431-1.716 1.2336-3.208 2.7529-4.409 4.4914-.051.1113-.078.2317-.08.3538-.002.1222.021.2434.067.3565.046.1132.114.2158.201.3016.087.0859.19.1533.304.1981.174.1314.387.2025.605.2025.218 0 .431-.0711.605-.2025 1.215-1.4258 2.592-2.7059 4.102-3.8146 1.164-.8542 2.441-1.5442 3.794-2.0509.778-.3221 1.634-.4076 2.461-.2461.553.1846.799.5743.984 1.3741.032.2931.032.5888 0 .8819v.3691c.01.0542.01.1099 0 .1641.036.1483.036.3029 0 .4512-.237.5403-.629.9974-1.128 1.3125-.308.2256-.472.2871-.697.164-.226-.123-.185-.3691 0-.7177.214-.5858.6-1.0934 1.107-1.4562.121-.1413.267-.2594.431-.3486ZM160.824 22.6853c-.587-.4022-1.204-.7587-1.846-1.0664-.892-.4787-1.844-.8373-2.83-1.0665-.964-.2446-1.961-.3346-2.953-.2666-1.085.0732-2.122.4737-2.974 1.1485-.307.2666-.164.8203.246 1.1895.41.3692.882.5537 1.046.4512.609-.3003 1.279-.4565 1.959-.4565.679 0 1.349.1562 1.958.4565.726.2687 1.415.6269 2.051 1.0664.453.3033.872.654 1.251 1.046l.246.2666c.923.5537 1.559 1.5996 1.477 2.0508.015.0745.015.1511 0 .2256v.123c0-.4306 0-.2871-.103-.3896-.138-.0826-.263-.1864-.369-.3076-.153-.174-.272-.376-.348-.5948l-.144-.205v-.7794c.058-.276.147-.5444.267-.7998.068-.1809.188-.3376.345-.4507.157-.113.343-.1774.536-.1851.881.0676 1.71.4455 2.338 1.0665.963.807 1.728 1.8243 2.236 2.9737 0 .2051.554.3076 1.107.2256.554-.082.944-.4307.862-.7999-.462-1.6117-1.407-3.0432-2.707-4.1017-1.058-.9791-2.403-1.5906-3.836-1.7432-.616-.0099-1.225.1329-1.772.4156-.548.2827-1.017.6965-1.365 1.2046-.304.4363-.545.9126-.718 1.4151-.097.2249-.172.4584-.226.6973-.094.2853-.149.5819-.164.8818-.035.4861.028.9742.185 1.4356.269.6185.659 1.1764 1.148 1.6407.4.3973.884.6996 1.417.8842.532.1846 1.1.2469 1.66.1823.695-.1331 1.317-.5206 1.743-1.087.334-.4741.545-1.0237.615-1.5996.083-.998-.154-1.9964-.677-2.8507-.418-.6969-.906-1.3497-1.456-1.9484l-.205-.3486Z"/><path fill="#33AF85" d="M190.993 220.531c-.443-2.132-.649-4.305-.616-6.481 0-2.728.205-5.476.205-8.204 0-57.997-49.22-40.832-54.532-71.656-3.794 7.28-9.495 14.91-16.776 18.745-17.35-1.21-34.1873-12.777-43.5802-27.42C59.1845 160.6.735352 145.219.735352 220.531l20.508448 1.415"/><path fill="#002776" d="m93.1666 171.105-3.0352-1.928-2.9328-2.051c-2.7602-2.108-5.39-4.382-7.8752-6.809-2.36-2.3-4.5596-4.76-6.5832-7.362a51.388785 51.388785 0 0 1-5.3527-8.204c-.5127-1.025-1.3535-1.661-1.8662-1.435-.5128.226-.5128 1.271 0 2.358 1.511 3.082 3.3101 6.014 5.3732 8.758 2.03 2.756 4.2503 5.367 6.6447 7.813 2.4692 2.551 5.0924 4.948 7.8548 7.178l2.9531 2.297 3.0762 2.154c.4717.348.9845.635 1.4767.963 1.1485.636 2.297 1.293 3.4865 1.867 1.1895.574 2.379 1.189 3.6095 1.681 1.212.549 2.45 1.035 3.712 1.457.636.225 1.251.471 1.887.676l2.502.677 1.641.451.41.123h.184v-.205l.144-.841.266-1.661.144-.841v-.492c.245-1.211.553-2.409.923-3.589.749-2.351 1.725-4.625 2.912-6.788.82-1.497 1.723-2.953 2.666-4.389l.882-1.436c.205-.328.164-.287.205-.348v-.185s0-.246.144-.164c.077.042.147.097.205.164.085.056.161.125.225.205.246.287.472.554.698.862.9 1.199 1.716 2.46 2.44 3.773 1.481 2.696 2.757 5.5 3.815 8.388l.43 1.169.452 1.313.881 2.604c.882-.882 1.887-1.927 2.687-2.871l1.21-1.415.779-1.046c1.02-1.401 1.958-2.859 2.81-4.368 2.745-5.089 5.11-10.374 7.075-15.812.411-1.067.349-2.051-.164-2.318-.512-.266-1.271.451-1.743 1.538-2.114 5.283-4.517 10.445-7.198 15.464-.803 1.421-1.693 2.791-2.666 4.102l-.718.984-.41.472c-.195.267-.43.502-.698.697l-.451-1.395c-1.05-3.027-2.304-5.981-3.753-8.839-.743-1.425-1.586-2.796-2.522-4.102-.247-.348-.493-.656-.78-1.004-.42-.527-.879-1.02-1.374-1.477-.451-.472-.984-.923-1.476-1.374l-.185-.185s0 .123-.144.185l-.307.39-.595.799-.861 1.128-.718 1.026-.964 1.374c-.943 1.538-1.866 3.097-2.728 4.717-1.225 2.36-2.221 4.832-2.973 7.383-.387 1.28-.702 2.581-.944 3.896l-.123.575v.246c0 .266-.225 0-.369 0l-1.23-.349c-.595-.184-1.19-.41-1.785-.636-1.1-.439-2.175-.939-3.22-1.497-2.2958-1.057-4.51-2.284-6.6237-3.671-.4922-.287-.9845-.43-1.4357-.82ZM174.791 67.0461c.356-1.7534.603-3.5274.738-5.3117.182-2.5684.065-5.1492-.348-7.6906-.26-2.525-1.134-4.948-2.546-7.0572-1.413-2.1093-3.32-3.8406-5.555-5.0429-.882-.3691-1.744 0-1.826.5332.006.3048.105.6005.285.8465s.432.4303.72.5276c1.877 1.0118 3.422 2.5426 4.451 4.4094 1.031 1.9067 1.679 3.9969 1.907 6.1525.267 2.3166.267 4.6562 0 6.9729-.198 1.6204-.513 3.2243-.943 4.7989l-.37 1.087c-.36 1.6056-.976 3.1428-1.825 4.5529-.312.6176-.76 1.1563-1.311 1.5755-.551.4192-1.189.7079-1.868.8445-1.556.0176-3.09-.3656-4.455-1.1127-1.365-.7471-2.514-1.833-3.338-3.1531-.701-.9047-1.338-1.8573-1.907-2.8507-.39-.6563-.82-1.292-1.149-2.0508-1.989-3.7297-3.321-7.7744-3.937-11.9564-.31-1.3733-.304-2.7988.015-4.1697.32-1.3709.946-2.6518 1.831-3.7466 2.358-2.4815 6.501-2.6661 10.254-2.1534.779.1025 1.476-.2256 1.579-.7588.102-.5332-.451-1.128-1.272-1.2715-2.084-.4325-4.225-.5156-6.337-.2461-2.25.2429-4.348 1.2489-5.947 2.8506-1.236 1.3092-2.07 2.9468-2.4 4.717-.316 1.6696-.378 3.3774-.184 5.0656.534 4.5172 1.765 8.9243 3.65 13.0639.308.7383.718 1.4356 1.067 2.1534.678 1.1342 1.439 2.2172 2.276 3.2403 1.237 1.5392 2.746 2.839 4.451 3.8351 1.86 1.0785 4.012 1.5448 6.152 1.333 1.165-.1416 2.27-.5951 3.199-1.3125.43-.3318.828-.7025 1.19-1.1074.345-.391.667-.8019.964-1.2306 1.076-1.6443 1.931-3.4234 2.543-5.2912l.246-1.0459Z"/><path fill="#F8E9DD" d="M146.673 42.8252c.164 5.3117 15.135 25.3895 15.135 34.0645 0 5.6194-10.008 7.7522-15.627 7.7522-3.213.2346-6.421-.5243-9.188-2.1738"/><path fill="#873953" d="M155.697 81.2577c-1.037.4734-2.115.8509-3.22 1.1279-1.619.4308-3.273.7191-4.943.8614-3.104.4454-6.27.0194-9.146-1.2305-.241-.1133-.514-.1362-.77-.0647-.256.0716-.478.2328-.625.4543-.074.1207-.122.2555-.14.3958-.018.1403-.006.2829.034.4184.041.1356.11.261.202.3681.093.107.207.1934.335.2534 1.579.8736 3.301 1.457 5.086 1.7227 1.733.2319 3.482.321 5.229.2666 1.812-.0619 3.615-.2677 5.394-.6153 1.27-.2511 2.524-.5798 3.753-.9844l.882-.3281c1.312-.6598 2.51-1.5252 3.548-2.5636 1.2-1.1742 1.892-2.7719 1.928-4.4503-.211-2.7523-.905-5.4459-2.051-7.9573-.328-.8409-.697-1.6612-1.046-2.4815-.349-.8204-.554-1.0254-.841-1.5177-1.497-2.7686-3.117-5.4347-4.676-8.2033-1.148-1.9278-2.256-3.8761-3.322-5.8244-1.383-2.3768-2.577-4.8593-3.569-7.4242-.089-.2354-.25-.4369-.459-.5766-.21-.1397-.458-.2105-.71-.2026-.553 0-.943.5537-.82 1.2715.851 2.8176 2.035 5.5234 3.528 8.0598l3.219 5.8859c1.457 2.7482 2.872 5.5168 4.102 8.3265.205.4922.41.9844.595 1.4971.184.5127.779 1.5381 1.107 2.3175 1.117 2.0942 1.813 4.3861 2.051 6.7472 0 1.7842-1.866 3.2609-4.101 4.1017l-.554.3487Z"/><path fill="#002776" d="M115.398 68.9526c-1.24-1.4963-2.274-3.1516-3.076-4.9221-1.184-2.5384-1.813-5.3001-1.846-8.1008-.038-2.5809.833-5.0929 2.461-7.0959 1.694-2.0373 3.904-3.5815 6.399-4.4709.861-.2871 1.518-.9024 1.415-1.4561-.102-.5538-1.025-.8409-2.051-.5127-2.91.9572-5.515 2.6699-7.547 4.963-2.039 2.406-3.191 5.4397-3.261 8.5931-.057 3.1605.551 6.2977 1.785 9.2083.837 2.0436 1.918 3.9786 3.219 5.7629.329.4101.616.8613.964 1.251 1.648 1.7157 3.602 3.107 5.763 4.1017 2.232 1.0177 4.7 1.4077 7.137 1.1279 2.347-.1373 4.655-.6641 6.83-1.5586 2.144-.9126 4.13-2.1585 5.885-3.6915 1.191-1.0532 2.282-2.2134 3.261-3.466.595-.8408 1.128-1.7226 1.641-2.6045 1.37-2.4242 2.398-5.0261 3.056-7.7317.756-2.7353.958-5.594.594-8.4085-.359-2.155-1.41-4.1345-2.994-5.6398-1.568-1.3898-3.434-2.4003-5.455-2.9532-4.889-1.198-9.984-1.2821-14.91-.2461-.984.1846-1.681.7793-1.579 1.3125.103.5332.923.8614 1.887.7383 4.636-.8037 9.386-.6642 13.966.4102 1.663.4618 3.199 1.2964 4.492 2.4405 1.198 1.1622 1.971 2.6935 2.194 4.3478.238 2.4762-.035 4.975-.8 7.342-.693 2.4312-1.729 4.7514-3.076 6.8908-.513.7178-1.005 1.4561-1.559 2.0509-.83 1.1237-1.764 2.1673-2.789 3.1173-1.469 1.3564-3.144 2.4709-4.963 3.3019-1.863.8121-3.857 1.2843-5.886 1.3945-1.969.1674-3.948-.1771-5.745-1-1.796-.8229-3.35-2.0962-4.509-3.6964-.349-.1846-.615-.5332-.903-.7998Z"/><path fill="#002776" d="m93.4133 52.4023-1.251.1641-1.8253.1436-3.4249.2666c-.2051 0-.3691.4922-.3691 1.0459 0 .5538.164 1.0049.3691 1.0255l3.4454.2666 1.8048.1435 1.251.1641h.3076c1.7572-.2152 3.534-.2152 5.2911 0h.9024l.5946-.1025c1.067-.1231 2.051-.2462 3.22-.2872h2.317c.979.0098 1.958-.0313 2.933-.123.205 0 .369-.4922.369-1.046 0-.5537-.164-1.0049-.369-1.0254-.975-.0918-1.954-.1328-2.933-.123h-2.317c-1.087 0-2.153-.1641-3.24-.2871l-.5541-.1026h-.9229c-1.764.2151-3.5476.2151-5.3116 0l-.2871-.1231Z"/><path fill="#7EB5D2" d="M135.475 122.275c1.323-.457 2.617-.991 3.876-1.6 1.786-.858 3.506-1.845 5.148-2.953 3.097-2.051 5.907-4.43 8.696-6.747.232-.18.387-.441.433-.731.046-.29-.021-.586-.187-.828-.207-.199-.482-.311-.769-.311-.287 0-.563.112-.769.311-2.83 2.213-5.781 4.267-8.839 6.152-1.572.993-3.218 1.864-4.923 2.605-1.173.476-2.379.866-3.609 1.169l-.861.185c-2.554.836-5.229 1.245-7.917 1.21-2.673-.059-5.329-.431-7.916-1.108-.902-.164-1.784-.513-2.666-.759-.882-.246-1.169-.266-1.743-.451-3.177-.95-6.249-2.221-9.168-3.794-2.148-1.123-4.205-2.412-6.1522-3.855-2.4097-1.714-4.5403-3.789-6.3165-6.153-.1448-.226-.3594-.398-.6112-.491-.2517-.092-.5269-.1-.7835-.022-.5332.185-.7176.862-.3895 1.538 1.7681 2.745 4.0527 5.12 6.7267 6.994 1.9691 1.486 4.0232 2.855 6.1522 4.101 3.012 1.773 6.168 3.289 9.434 4.533.554.246 1.128.451 1.723.656.964.226 1.907.554 2.892.718 5.741 1.2 11.67 1.2 17.411 0l1.128-.369Z"/></svg>