<svg
    xmlns="http://www.w3.org/2000/svg"
    width="100%"
    height="128"
    fill="none"
    viewBox="0 0 193 128"
>
    <path
        fill="#002776"
        d="M0 48.928l4.251-2.96c3.112 5.462 6.983 7.814 12.668 7.814 7.434 0 12.288-4.631 12.288-10.617.15-4.632-2.81-7.284-7.585-8.954l-9.026-3.183C5.922 28.598 2.43 24.582 2.43 18.13c0-10.317 9.334-14.719 16.16-14.719 6.602 0 12.366 3.184 15.169 8.876l-3.72 2.272c-2.811-4.473-6.224-6.524-11.608-6.524-4.853 0-10.774 2.882-10.774 9.406 0 4.402 1.971 7.055 7.054 8.797l8.875 3.111c7.054 2.502 10.926 6.603 10.926 13.126 0 9.177-7.664 16.31-17.37 16.31C9.096 58.793 3.111 54.39 0 48.928zM95.054 30.268c0-6.983-3.033-10.166-9.105-10.166-6.825 0-11.836 5.233-11.836 12.897v24.654h-4.781V30.268c0-6.983-3.033-10.166-9.177-10.166-6.753 0-11.836 5.233-11.836 12.897v24.654h-4.782V16.84h4.782v7.965c1.67-4.631 6.524-9.105 13.428-9.105 5.842 0 10.466 2.961 11.907 8.797 2.273-4.703 7.205-8.797 13.808-8.797 7.054 0 12.367 4.323 12.367 12.969v28.977h-4.782V30.268h.007zM141.108 57.653h-4.782V49.76c-1.742 4.782-6.825 9.026-13.886 9.026-7.133 0-12.439-4.474-12.439-13.578V16.833h4.782v27.464c0 6.904 3.341 10.087 9.406 10.087 6.983 0 12.137-5.162 12.137-12.897V16.833h4.782v40.82zM187.993 57.653V49.23c-3.642 5.914-9.936 9.556-17.148 9.556-11.528 0-20.711-8.954-20.711-21.543 0-12.596 9.176-21.543 20.711-21.543 7.205 0 13.506 3.642 17.148 9.485V0h4.854v57.653h-4.854zm0-20.41c0-10.395-7.355-16.919-16.309-16.919-9.105 0-16.389 6.524-16.389 16.92 0 10.466 7.284 16.918 16.389 16.918 8.954 0 16.309-6.524 16.309-16.919z"
    ></path>
    <path
        fill="#EE8D9C"
        d="M12.431 75.39h42.175V85.9H39.474v40.927h-11.98V85.899H12.431V75.39zM74.156 127.924c-12.194 0-21.234-8.818-21.234-21.163 0-12.417 9.628-21.163 21.385-21.163 10.51 0 18.811 7.492 18.811 19.837v4.337H64.901c1.176 5.513 5.362 8.373 10.582 8.373 4.925 0 8.373-1.613 11.606-4.631l5.735 6.173c-5.226 5.735-11.907 8.237-18.668 8.237zm-9.112-25.794h17.12c-.953-5.069-3.893-7.198-7.714-7.198-4.337 0-8.087 2.28-9.406 7.198zM129.265 100.151c-2.502-2.574-5.435-3.821-8.747-3.821-5.728 0-10.287 3.527-10.287 10.431 0 6.316 4.552 10.287 10.51 10.287a14.19 14.19 0 009.922-4.043l5.728 7.714c-4.775 5.068-10.948 7.198-16.389 7.198-11.9 0-21.528-8.596-21.528-21.163 0-12.417 9.628-21.163 21.528-21.163 6.244 0 11.686 2.2 16.166 6.904l-6.903 7.656zM141.904 70.98h11.391v22.483c1.613-4.044 6.316-7.865 13.005-7.865 7.785 0 13.592 4.703 13.592 14.18v27.042h-11.391v-23.221c0-4.996-2.28-7.348-6.983-7.348-4.774 0-8.23 3.377-8.23 8.374v22.188h-11.392V70.981h.008z"
    ></path>
</svg>